if (_typeface_js && _typeface_js.loadFace) _typeface_js.loadFace({"glyphs":{"S":{"x_min":32.65625,"x_max":850.703125,"ha":901,"o":"m 32 329 b 446 -23 29 84 231 -23 b 850 294 710 -23 850 112 b 562 583 850 519 632 565 b 272 733 318 647 272 656 b 419 845 272 816 351 845 b 611 695 521 845 604 815 l 818 695 b 428 1015 818 925 631 1015 b 65 715 253 1015 65 918 b 355 433 65 529 210 472 b 643 269 498 394 643 376 b 454 145 643 168 529 145 b 239 329 340 145 239 197 l 32 329 "},"¦":{"x_min":78.9375,"x_max":224.578125,"ha":310,"o":"m 78 -123 l 224 -123 l 224 223 l 78 223 l 78 -123 m 224 918 l 78 918 l 78 570 l 224 570 l 224 918 "},"/":{"x_min":-15,"x_max":520,"ha":515,"o":"m -15 -23 l 140 -23 l 520 1015 l 364 1015 l -15 -23 "},"y":{"x_min":-8,"x_max":715,"ha":721,"o":"m 715 716 l 514 716 l 360 225 l 358 225 l 198 716 l -8 716 l 239 43 b 173 -91 261 -13 239 -84 b 60 -84 134 -93 96 -87 l 60 -247 b 178 -254 99 -251 139 -254 b 420 -91 311 -254 378 -206 l 715 716 "},"≈":{"x_min":52,"x_max":693.078125,"ha":763,"o":"m 633 628 b 510 528 596 568 562 528 b 392 578 468 528 441 549 b 248 630 358 597 314 630 b 52 487 164 630 91 568 l 113 430 b 239 530 145 480 179 530 b 356 484 283 530 317 509 b 509 429 418 445 454 429 b 693 572 586 429 650 489 l 633 628 m 633 369 b 510 269 595 309 563 269 b 392 320 467 269 434 296 b 248 370 358 340 314 370 b 52 229 164 370 91 309 l 113 172 b 239 273 145 223 178 273 b 356 226 283 273 316 252 b 509 171 416 190 454 171 b 693 314 588 171 650 232 l 633 369 "},"Ž":{"x_min":30.921875,"x_max":850.078125,"ha":900,"o":"m 30 0 l 850 0 l 850 183 l 315 183 l 836 819 l 836 992 l 71 992 l 71 808 l 552 808 l 30 172 l 30 0 m 679 1278 l 530 1278 l 441 1165 l 354 1278 l 202 1278 l 353 1080 l 530 1080 l 679 1278 "},"Á":{"x_min":-10,"x_max":941,"ha":951,"o":"m -10 0 l 206 0 l 282 220 l 645 220 l 719 0 l 941 0 l 577 991 l 358 991 l -10 0 m 464 747 l 467 747 l 589 383 l 338 383 l 464 747 m 706 1277 l 493 1277 l 362 1080 l 497 1080 l 706 1277 "},"g":{"x_min":51.71875,"x_max":749.96875,"ha":849,"o":"m 749 718 l 566 718 l 566 622 l 563 622 b 353 737 517 705 446 737 b 51 381 156 737 51 568 b 352 20 51 184 141 20 b 563 131 436 20 521 56 l 566 131 l 566 37 b 411 -140 567 -65 518 -140 b 266 -41 343 -140 284 -115 l 74 -41 b 385 -272 84 -205 246 -272 b 749 45 709 -272 749 -72 l 749 718 m 401 169 b 245 384 283 169 245 281 b 401 588 245 491 292 588 b 566 368 526 588 566 484 b 401 169 566 265 511 169 "},"²":{"x_min":36.75,"x_max":496.8125,"ha":544,"o":"m 176 750 b 274 880 174 805 198 880 b 357 794 325 880 357 843 b 227 651 356 722 281 687 b 36 379 121 583 38 526 l 491 379 l 491 490 l 206 490 b 386 626 253 554 325 586 b 496 804 447 668 496 716 b 284 991 496 927 397 991 b 38 750 117 991 36 893 l 176 750 "},"–":{"x_min":0,"x_max":680.5625,"ha":694,"o":"m 0 294 l 680 294 l 680 463 l 0 463 l 0 294 "},"ë":{"x_min":39.46875,"x_max":741.53125,"ha":797,"o":"m 740 311 b 398 737 754 531 638 737 b 39 358 185 737 39 573 b 398 -19 39 136 176 -19 b 728 222 558 -19 673 52 l 558 222 b 405 129 545 177 483 129 b 232 311 298 129 238 186 l 740 311 m 232 436 b 393 588 235 491 270 588 b 547 436 487 588 529 536 l 232 436 m 439 829 l 623 829 l 623 991 l 439 991 l 439 829 m 159 829 l 343 829 l 343 991 l 159 991 l 159 829 "},"ƒ":{"x_min":-7,"x_max":695,"ha":772,"o":"m -7 -231 b 93 -236 31 -234 59 -236 b 378 37 295 -236 344 -148 l 454 468 l 590 468 l 612 600 l 478 600 l 512 780 b 616 866 523 840 545 866 b 670 856 633 866 650 865 l 695 1005 b 592 1015 660 1012 626 1015 b 312 776 414 1015 345 951 l 280 600 l 156 600 l 131 468 l 256 468 l 171 11 b 73 -87 160 -52 142 -88 b 18 -83 55 -87 36 -86 l -7 -231 "},"Î":{"x_min":-38.109375,"x_max":439.640625,"ha":410,"o":"m 93 0 l 307 0 l 307 991 l 93 991 l 93 0 m -38 1080 l 108 1080 l 196 1193 l 280 1080 l 439 1080 l 289 1278 l 112 1278 l -38 1080 "},"e":{"x_min":39.46875,"x_max":741.53125,"ha":797,"o":"m 740 311 b 398 737 754 531 638 737 b 39 358 185 737 39 573 b 398 -19 39 136 176 -19 b 728 222 558 -19 673 52 l 558 222 b 405 129 545 177 483 129 b 232 311 298 129 238 186 l 740 311 m 232 436 b 393 588 235 491 270 588 b 547 436 487 588 529 536 l 232 436 "},"Ã":{"x_min":-10,"x_max":941,"ha":951,"o":"m -10 0 l 206 0 l 282 220 l 645 220 l 719 0 l 941 0 l 577 991 l 358 991 l -10 0 m 464 747 l 467 747 l 589 383 l 338 383 l 464 747 m 621 1265 b 564 1216 622 1238 604 1216 b 474 1241 532 1216 502 1229 b 387 1265 445 1252 418 1265 b 215 1095 267 1265 233 1176 l 298 1095 b 355 1154 306 1130 319 1154 b 451 1130 387 1154 417 1143 b 562 1106 485 1119 521 1106 b 672 1162 618 1106 651 1130 b 715 1265 694 1194 705 1233 l 621 1265 "},"J":{"x_min":19.0625,"x_max":662.859375,"ha":772,"o":"m 662 991 l 449 991 l 449 322 b 336 159 449 252 449 159 b 212 325 235 159 212 229 l 212 369 l 19 369 l 19 283 b 338 -23 19 66 176 -23 b 662 312 628 -23 662 184 l 662 991 "},"»":{"x_min":57.171875,"x_max":546.859375,"ha":617,"o":"m 333 643 l 333 476 l 455 377 l 333 277 l 333 111 l 546 284 l 546 472 l 333 643 m 57 643 l 57 476 l 179 377 l 57 277 l 57 111 l 270 284 l 270 472 l 57 643 "},"∆":{"x_min":36.9375,"x_max":852.234375,"ha":908,"o":"m 36 0 l 852 0 l 852 104 l 550 995 l 348 995 l 36 101 l 36 0 m 211 140 l 369 575 b 439 805 390 652 428 755 l 443 805 b 521 554 458 744 499 629 l 669 140 l 211 140 "},"©":{"x_min":21.78125,"x_max":1067.109375,"ha":1111,"o":"m 21 495 b 544 -23 21 180 268 -23 b 1067 495 820 -23 1067 180 b 544 1015 1067 812 820 1015 b 21 495 268 1015 21 812 m 160 495 b 544 904 160 733 330 904 b 928 495 755 904 928 733 b 544 87 928 259 755 87 b 160 495 330 87 160 259 m 700 409 b 563 301 692 343 638 301 b 401 501 464 301 401 393 b 560 698 401 615 457 698 b 700 594 631 698 687 659 l 807 594 b 560 809 788 734 686 809 b 270 498 379 809 270 677 b 563 190 270 325 386 190 b 811 409 684 190 789 270 l 700 409 "},"˘":{"x_min":-53,"x_max":406,"ha":360,"o":"m -53 1009 b 163 806 -42 876 32 806 b 406 1009 297 806 388 868 l 320 1009 b 170 911 303 938 250 911 b 35 1009 117 911 45 934 l -53 1009 "},"≥":{"x_min":68.0625,"x_max":680.5625,"ha":763,"o":"m 74 866 l 74 750 l 581 504 l 581 501 l 74 255 l 74 138 l 680 448 l 680 556 l 74 866 m 680 -16 l 680 86 l 68 86 l 68 -16 l 680 -16 "},"ò":{"x_min":51.71875,"x_max":779.921875,"ha":849,"o":"m 51 358 b 415 -19 51 130 194 -19 b 779 358 637 -19 779 130 b 415 737 779 587 637 737 b 51 358 194 737 51 587 m 245 358 b 415 588 245 473 284 588 b 586 358 547 588 586 473 b 415 129 586 244 547 129 b 245 358 284 129 245 244 m 383 806 l 518 806 l 387 1004 l 174 1004 l 383 806 "},"^":{"x_min":83,"x_max":734,"ha":833,"o":"m 83 437 l 242 437 l 408 819 l 574 437 l 734 437 l 499 971 l 317 971 l 83 437 "},"«":{"x_min":57.140625,"x_max":546.828125,"ha":617,"o":"m 546 111 l 546 277 l 424 377 l 546 476 l 546 643 l 333 472 l 333 284 l 546 111 m 270 111 l 270 277 l 148 377 l 270 476 l 270 643 l 57 472 l 57 284 l 270 111 "},"D":{"x_min":93.921875,"x_max":954.140625,"ha":1029,"o":"m 93 0 l 513 0 b 954 501 809 0 954 213 b 513 991 954 830 764 991 l 93 991 l 93 0 m 307 808 l 460 808 b 740 480 672 808 740 680 b 498 183 740 261 622 183 l 307 183 l 307 808 "},"∙":{"x_min":74.859375,"x_max":304.890625,"ha":386,"o":"m 74 398 b 191 281 74 334 127 281 b 304 398 251 281 304 340 b 190 516 304 462 251 516 b 74 398 127 516 74 463 "},"ł":{"x_min":-12.25,"x_max":363.421875,"ha":358,"o":"m 78 0 l 272 0 l 272 552 l 363 626 l 363 768 l 272 694 l 272 991 l 78 991 l 78 538 l -12 465 l -12 323 l 78 397 l 78 0 "},"ÿ":{"x_min":-8.109375,"x_max":714.640625,"ha":721,"o":"m 714 716 l 514 716 l 360 225 l 358 225 l 198 716 l -8 716 l 239 43 b 172 -91 261 -13 239 -84 b 59 -84 134 -93 96 -87 l 59 -247 b 178 -254 99 -251 138 -254 b 420 -91 311 -254 378 -206 l 714 716 m 401 827 l 585 827 l 585 990 l 401 990 l 401 827 m 121 827 l 304 827 l 304 990 l 121 990 l 121 827 "},"Ł":{"x_min":-14.96875,"x_max":781.28125,"ha":824,"o":"m 93 0 l 781 0 l 781 183 l 307 183 l 307 450 l 594 655 l 594 811 l 307 605 l 307 991 l 93 991 l 93 452 l -14 375 l -14 219 l 93 297 l 93 0 "},"í":{"x_min":73.5,"x_max":417.859375,"ha":358,"o":"m 78 0 l 272 0 l 272 718 l 78 718 l 78 0 m 417 1004 l 204 1004 l 73 806 l 208 806 l 417 1004 "},"ˆ":{"x_min":-63,"x_max":415,"ha":360,"o":"m -63 806 l 84 806 l 171 919 l 255 806 l 415 806 l 265 1003 l 88 1003 l -63 806 "},"w":{"x_min":8,"x_max":1100,"ha":1131,"o":"m 1100 718 l 901 718 l 771 231 l 769 231 l 649 718 l 461 718 l 344 230 l 341 230 l 212 718 l 8 718 l 231 0 l 431 0 l 551 481 l 554 481 l 679 0 l 878 0 l 1100 718 "},"$":{"x_min":-1,"x_max":758.5,"ha":772,"o":"m 337 626 b 215 737 250 647 215 676 b 337 852 215 814 276 852 l 337 626 m 418 405 b 565 275 525 375 565 348 b 418 139 565 186 484 145 l 418 405 m -1 322 b 337 -23 19 104 136 -8 l 337 -141 l 418 -141 l 418 -23 b 758 266 689 -5 758 187 b 487 589 758 359 753 514 b 418 607 463 595 440 601 l 418 852 b 531 719 479 852 529 793 l 724 719 b 418 1015 713 911 580 997 l 418 1122 l 337 1122 l 337 1015 b 22 718 174 1005 22 908 b 294 441 22 533 158 479 b 337 429 312 437 328 433 l 337 139 b 192 322 254 155 190 219 l -1 322 "},"∫":{"x_min":27.21875,"x_max":506.328125,"ha":547,"o":"m 506 1187 b 423 1204 490 1195 457 1204 b 265 1140 364 1204 303 1184 b 183 826 206 1077 183 988 b 204 137 183 588 204 390 b 167 -80 204 11 190 -47 b 107 -108 152 -101 129 -108 b 49 -94 81 -108 61 -100 l 27 -218 b 132 -240 47 -229 88 -240 b 304 -140 197 -240 268 -212 b 353 138 334 -86 353 5 b 334 809 353 387 334 583 b 371 1045 334 927 343 1006 b 439 1080 389 1070 413 1080 b 487 1069 458 1080 475 1075 l 506 1187 "},"\\":{"x_min":-15,"x_max":519.921875,"ha":515,"o":"m 140 1015 l -15 1015 l 364 -23 l 519 -23 l 140 1015 "},"Ì":{"x_min":-40.453125,"x_max":307.984375,"ha":410,"o":"m 94 0 l 307 0 l 307 991 l 94 991 l 94 0 m 169 1080 l 303 1080 l 173 1277 l -40 1277 l 169 1080 "},"µ":{"x_min":73.5,"x_max":733.640625,"ha":824,"o":"m 733 718 l 540 718 l 540 342 b 390 136 540 196 495 136 b 266 313 300 136 266 194 l 266 718 l 73 718 l 73 -252 l 266 -252 l 266 14 b 368 -18 283 -3 314 -18 b 545 100 412 -18 496 19 l 549 100 l 549 0 l 733 0 l 733 718 "},"Ç":{"x_min":51.71875,"x_max":956.859375,"ha":1029,"o":"m 948 656 b 529 1013 922 886 743 1013 b 51 490 228 1013 51 784 b 469 -20 51 223 205 6 l 404 -116 l 432 -150 b 487 -140 447 -144 468 -140 b 541 -184 517 -140 541 -149 b 487 -231 541 -218 519 -231 b 372 -206 441 -231 401 -219 l 344 -273 b 513 -304 396 -291 427 -304 b 672 -165 593 -304 672 -273 b 547 -68 672 -97 608 -68 b 500 -75 524 -68 509 -70 l 498 -75 l 533 -25 b 956 380 770 -22 935 134 l 749 380 b 529 158 733 250 660 158 b 265 490 337 158 265 325 b 529 830 265 663 337 830 b 741 656 635 830 728 755 l 948 656 "},"’":{"x_min":92.5625,"x_max":285.96875,"ha":386,"o":"m 92 777 l 182 777 b 92 637 182 709 161 661 l 92 545 b 285 779 205 561 289 655 l 285 991 l 92 991 l 92 777 "},"-":{"x_min":72.140625,"x_max":481.828125,"ha":565,"o":"m 72 294 l 481 294 l 481 463 l 72 463 l 72 294 "},"Q":{"x_min":52.3125,"x_max":1007.984375,"ha":1081,"o":"m 1002 13 l 881 125 b 1007 491 963 220 1007 348 b 530 1014 1007 785 830 1014 b 52 491 229 1014 52 785 b 530 -24 52 205 229 -24 b 765 34 621 -24 701 -3 l 903 -93 l 1002 13 m 524 257 l 615 173 b 530 159 600 159 561 159 b 266 491 338 159 266 325 b 530 831 266 664 338 831 b 794 491 721 831 794 664 b 734 263 794 388 769 313 l 623 366 l 524 257 "},"M":{"x_min":93.921875,"x_max":1140.609375,"ha":1260,"o":"m 93 0 l 294 0 l 294 695 l 296 695 l 534 0 l 699 0 l 937 702 l 940 702 l 940 0 l 1140 0 l 1140 991 l 839 991 l 624 309 l 622 309 l 394 991 l 93 991 l 93 0 "},"C":{"x_min":51.71875,"x_max":956.859375,"ha":1029,"o":"m 948 656 b 529 1013 922 886 743 1013 b 51 490 228 1013 51 784 b 529 -25 51 204 228 -25 b 956 380 767 -25 935 133 l 749 380 b 529 158 733 250 660 158 b 265 490 337 158 265 325 b 529 830 265 663 337 830 b 741 656 635 830 728 755 l 948 656 "},"œ":{"x_min":51.8125,"x_max":1221,"ha":1286,"o":"m 718 436 b 871 589 722 521 774 589 b 1027 436 973 589 1023 528 l 718 436 m 394 129 b 245 356 279 129 245 257 b 398 589 245 465 280 589 b 549 361 528 589 549 457 b 394 129 549 257 524 129 m 1221 311 b 875 737 1221 540 1124 737 b 639 623 790 737 688 697 b 397 737 589 707 488 737 b 51 362 187 737 51 573 b 382 -18 51 158 164 -18 b 631 103 476 -18 582 16 b 886 -18 686 14 788 -18 b 1215 228 1045 -18 1170 72 l 1027 228 b 886 129 1001 163 956 129 b 718 311 773 129 718 208 l 1221 311 "},"!":{"x_min":83.03125,"x_max":296.71875,"ha":386,"o":"m 289 991 l 88 991 l 88 725 l 140 297 l 236 297 l 289 725 l 289 991 m 83 0 l 296 0 l 296 213 l 83 213 l 83 0 "},"ç":{"x_min":51.734375,"x_max":745.90625,"ha":797,"o":"m 741 465 b 411 737 729 648 577 737 b 51 348 182 737 51 572 b 359 -15 51 150 174 4 l 291 -115 l 319 -148 b 374 -138 334 -143 355 -138 b 428 -183 404 -138 428 -148 b 374 -230 428 -216 406 -230 b 259 -205 328 -230 288 -218 l 231 -272 b 400 -302 283 -290 314 -302 b 559 -163 480 -302 559 -272 b 434 -66 559 -95 495 -66 b 387 -73 411 -66 396 -69 l 385 -73 l 423 -18 b 745 275 600 -12 722 90 l 559 275 b 405 129 547 187 495 129 b 245 355 284 129 245 252 b 409 588 245 461 285 588 b 552 465 490 588 540 545 l 741 465 "},"È":{"x_min":93.921875,"x_max":831.640625,"ha":900,"o":"m 93 0 l 831 0 l 831 183 l 307 183 l 307 426 l 778 426 l 778 595 l 307 595 l 307 808 l 820 808 l 820 991 l 93 991 l 93 0 m 409 1080 l 544 1080 l 413 1277 l 200 1277 l 409 1080 "},"ﬁ":{"x_min":0,"x_max":752.703125,"ha":849,"o":"m 752 991 l 559 991 l 559 829 l 752 829 l 752 991 m 559 0 l 752 0 l 752 717 l 559 717 l 559 0 m 115 0 l 308 0 l 308 585 l 442 585 l 442 717 l 308 717 l 308 760 b 382 842 308 820 330 842 b 453 838 406 842 430 841 l 453 985 b 351 991 420 987 385 991 b 115 773 193 991 115 899 l 115 717 l 0 717 l 0 585 l 115 585 l 115 0 "},"{":{"x_min":-12.25,"x_max":453.25,"ha":463,"o":"m 453 1015 l 280 1015 b 112 827 219 1015 112 954 l 112 566 b -12 441 112 473 31 441 l -12 320 b 112 205 31 320 112 290 l 112 -65 b 280 -252 112 -191 219 -252 l 453 -252 l 453 -97 l 379 -97 b 306 4 314 -97 306 -41 l 306 226 b 171 379 306 343 212 375 l 171 383 b 306 547 212 388 306 411 l 306 758 b 379 859 306 802 314 859 l 453 859 l 453 1015 "},"X":{"x_min":-8,"x_max":916,"ha":926,"o":"m -8 0 l 232 0 l 449 343 l 661 0 l 916 0 l 577 518 l 888 991 l 654 991 l 457 675 l 266 991 l 19 991 l 332 519 l -8 0 "},"ô":{"x_min":51.828125,"x_max":780.171875,"ha":849,"o":"m 51 357 b 415 -19 51 130 194 -19 b 780 357 637 -19 780 130 b 415 737 780 587 637 737 b 51 357 194 737 51 587 m 245 357 b 415 588 245 473 284 588 b 586 357 547 588 586 473 b 415 128 586 244 547 128 b 245 357 284 128 245 244 m 177 806 l 324 806 l 411 919 l 495 806 l 654 806 l 505 1003 l 328 1003 l 177 806 "},"¼":{"x_min":32.3125,"x_max":1145.140625,"ha":1239,"o":"m 936 0 l 1067 0 l 1067 123 l 1145 123 l 1145 234 l 1067 234 l 1067 583 l 931 583 l 675 252 l 675 123 l 936 123 l 936 0 m 936 234 l 779 234 l 934 434 l 936 434 l 936 234 m 206 -30 l 324 -30 l 885 1002 l 769 1002 l 206 -30 m 320 979 l 206 979 b 32 863 194 890 119 861 l 32 759 l 182 759 l 182 379 l 320 379 l 320 979 "},"#":{"x_min":45.015625,"x_max":711.984375,"ha":772,"o":"m 119 0 l 251 0 l 290 275 l 420 275 l 383 0 l 515 0 l 552 275 l 671 275 l 671 400 l 570 400 l 593 572 l 711 572 l 711 697 l 611 697 l 648 972 l 515 972 l 479 697 l 347 697 l 385 972 l 253 972 l 215 697 l 85 697 l 85 572 l 198 572 l 174 400 l 45 400 l 45 275 l 157 275 l 119 0 m 461 572 l 438 400 l 306 400 l 330 572 l 461 572 "},"Ê":{"x_min":94.15625,"x_max":831.875,"ha":900,"o":"m 94 0 l 831 0 l 831 183 l 307 183 l 307 426 l 778 426 l 778 596 l 307 596 l 307 808 l 821 808 l 821 991 l 94 991 l 94 0 m 203 1080 l 350 1080 l 437 1193 l 521 1080 l 680 1080 l 531 1278 l 354 1278 l 203 1080 "},")":{"x_min":-9.53125,"x_max":332.109375,"ha":411,"o":"m 152 -252 b 332 388 272 -77 332 181 b 152 1015 332 605 264 825 l -8 1015 b 138 375 92 813 138 594 b -9 -252 138 159 91 -58 l 152 -252 "},"Å":{"x_min":-9.28125,"x_max":942.140625,"ha":951,"o":"m -9 0 l 207 0 l 283 220 l 646 220 l 720 0 l 942 0 l 578 991 l 359 991 l -9 0 m 465 747 l 468 747 l 590 383 l 339 383 l 465 747 m 380 1184 b 465 1281 380 1238 414 1281 b 552 1184 517 1281 552 1238 b 465 1087 552 1130 517 1087 b 380 1184 414 1087 380 1130 m 299 1184 b 465 1015 299 1091 374 1015 b 633 1184 558 1015 633 1091 b 465 1354 633 1277 558 1354 b 299 1184 374 1354 299 1277 "},"ø":{"x_min":51.984375,"x_max":780.03125,"ha":849,"o":"m 265 239 b 245 358 250 274 245 317 b 415 589 245 474 284 589 b 528 544 465 589 502 572 l 265 239 m 565 485 b 586 358 580 447 586 403 b 415 129 586 244 547 129 b 299 176 363 129 325 147 l 565 485 m 60 2 l 110 -42 l 190 50 b 415 -18 252 4 326 -18 b 780 358 637 -18 780 131 b 686 626 780 468 746 561 l 759 711 l 709 755 l 637 671 b 415 737 577 714 502 737 b 51 358 194 737 51 587 b 141 96 51 251 83 161 l 60 2 "},"â":{"x_min":43.84375,"x_max":729.609375,"ha":797,"o":"m 511 278 b 355 112 511 235 506 112 b 237 204 292 112 237 130 b 351 309 237 276 291 297 b 511 351 411 321 479 322 l 511 278 m 258 497 b 386 605 265 574 313 605 b 511 508 454 605 511 592 b 283 413 511 427 401 432 b 43 196 163 397 43 358 b 283 -18 43 49 149 -18 b 520 69 369 -18 458 4 b 533 0 521 46 526 22 l 729 0 b 705 160 711 29 705 94 l 705 533 b 396 737 705 705 536 737 b 65 497 238 737 76 681 l 258 497 m 152 806 l 299 806 l 386 919 l 471 806 l 630 806 l 480 1003 l 303 1003 l 152 806 "},"}":{"x_min":0,"x_max":465.5,"ha":463,"o":"m 0 -252 l 172 -252 b 340 -65 234 -252 340 -191 l 340 205 b 465 320 340 290 421 320 l 465 441 b 340 566 421 441 340 473 l 340 827 b 172 1015 340 954 234 1015 l 0 1015 l 0 859 l 73 859 b 147 758 138 859 147 802 l 147 547 b 281 383 147 411 240 388 l 281 379 b 147 226 240 375 147 343 l 147 4 b 73 -97 147 -41 138 -97 l 0 -97 l 0 -252 "},"‰":{"x_min":94.453125,"x_max":1467.484375,"ha":1593,"o":"m 721 238 b 800 368 721 291 724 368 b 874 219 872 368 874 291 b 797 70 874 152 875 70 b 721 238 725 70 721 159 m 599 215 b 797 -19 599 76 671 -19 b 996 216 938 -19 996 81 b 799 458 996 351 947 458 b 599 215 657 458 599 345 m 1070 215 b 1268 -19 1070 76 1142 -19 b 1467 216 1408 -19 1467 81 b 1270 458 1467 351 1418 458 b 1070 215 1128 458 1070 345 m 1192 238 b 1271 368 1192 291 1195 368 b 1344 219 1343 368 1344 291 b 1268 70 1344 152 1346 70 b 1192 238 1196 70 1192 159 m 94 748 b 293 513 94 609 166 513 b 491 750 433 513 491 615 b 294 991 491 884 442 991 b 94 748 152 991 94 879 m 216 772 b 295 901 216 825 219 901 b 369 752 367 901 369 825 b 293 604 369 686 370 604 b 216 772 221 604 216 693 m 204 -30 l 323 -30 l 883 1002 l 767 1002 l 204 -30 "},"Ä":{"x_min":-8.921875,"x_max":942.5,"ha":951,"o":"m -8 0 l 207 0 l 283 220 l 647 220 l 720 0 l 942 0 l 579 991 l 359 991 l -8 0 m 466 747 l 468 747 l 591 383 l 339 383 l 466 747 m 515 1102 l 698 1102 l 698 1265 l 515 1265 l 515 1102 m 234 1102 l 418 1102 l 418 1265 l 234 1265 l 234 1102 "},"¸":{"x_min":16.65625,"x_max":344.6875,"ha":360,"o":"m 16 -273 b 185 -304 68 -291 99 -304 b 344 -165 265 -304 344 -273 b 219 -68 344 -97 280 -68 b 173 -75 196 -68 181 -70 l 170 -75 l 223 1 l 156 1 l 76 -116 l 105 -150 b 159 -140 120 -144 140 -140 b 214 -184 189 -140 214 -150 b 159 -231 214 -218 192 -231 b 45 -206 113 -231 73 -219 l 16 -273 "},"a":{"x_min":43.5625,"x_max":729.5625,"ha":797,"o":"m 511 278 b 355 112 511 235 506 112 b 236 204 292 112 236 131 b 351 310 236 276 291 297 b 511 351 411 321 479 322 l 511 278 m 258 497 b 386 606 265 575 313 606 b 511 508 454 606 511 593 b 283 414 511 428 401 432 b 43 196 163 397 43 358 b 283 -18 43 49 149 -18 b 519 69 368 -18 458 4 b 533 0 521 46 526 22 l 729 0 b 705 160 711 29 705 94 l 705 533 b 396 737 705 706 536 737 b 65 497 238 737 76 682 l 258 497 "},"—":{"x_min":176.9375,"x_max":1184.171875,"ha":1389,"o":"m 176 294 l 1184 294 l 1184 463 l 176 463 l 176 294 "},"=":{"x_min":65.328125,"x_max":752.703125,"ha":833,"o":"m 752 573 l 65 573 l 65 425 l 752 425 l 752 573 m 752 276 l 65 276 l 65 127 l 752 127 l 752 276 "},"N":{"x_min":93.921875,"x_max":914.671875,"ha":1029,"o":"m 93 0 l 294 0 l 294 663 l 296 663 l 700 0 l 914 0 l 914 991 l 714 991 l 714 326 l 711 326 l 306 991 l 93 991 l 93 0 "},"˚":{"x_min":9.53125,"x_max":343,"ha":360,"o":"m 89 911 b 175 1008 89 965 123 1008 b 262 911 227 1008 262 965 b 175 813 262 856 227 813 b 89 911 123 813 89 856 m 9 911 b 175 741 9 818 84 741 b 343 911 268 741 343 818 b 175 1080 343 1004 268 1080 b 9 911 84 1080 9 1004 "},"ú":{"x_min":72.984375,"x_max":733.125,"ha":824,"o":"m 733 718 l 539 718 l 539 341 b 390 136 539 195 494 136 b 266 312 300 136 266 194 l 266 718 l 72 718 l 72 276 b 330 -19 72 98 124 -19 b 545 100 411 -19 496 19 l 549 100 l 549 0 l 733 0 l 733 718 m 644 1004 l 430 1004 l 300 806 l 435 806 l 644 1004 "},"⁄":{"x_min":-226,"x_max":453,"ha":232,"o":"m -226 -30 l -107 -30 l 453 1002 l 337 1002 l -226 -30 "},"2":{"x_min":28.578125,"x_max":728.203125,"ha":772,"o":"m 235 598 b 386 822 235 701 272 822 b 529 672 469 822 529 763 b 329 434 528 552 413 493 b 28 0 164 320 29 225 l 728 0 l 728 169 l 277 169 b 552 393 347 269 458 325 b 722 687 646 461 722 541 b 396 991 722 877 570 991 b 50 598 167 991 43 820 l 235 598 "},"ü":{"x_min":73.5,"x_max":733.640625,"ha":824,"o":"m 733 718 l 540 718 l 540 341 b 390 136 540 195 495 136 b 266 312 300 136 266 194 l 266 718 l 73 718 l 73 276 b 330 -19 73 98 125 -19 b 545 100 412 -19 496 19 l 549 100 l 549 0 l 733 0 l 733 718 m 451 829 l 635 829 l 635 991 l 451 991 l 451 829 m 171 829 l 355 829 l 355 991 l 171 991 l 171 829 "},"¯":{"x_min":-77.578125,"x_max":430.109375,"ha":360,"o":"m -77 855 l 430 855 l 430 959 l -77 959 l -77 855 "},"Z":{"x_min":30.875,"x_max":850.265625,"ha":900,"o":"m 30 0 l 850 0 l 850 183 l 315 183 l 836 819 l 836 991 l 71 991 l 71 808 l 552 808 l 30 172 l 30 0 "},"u":{"x_min":73.5,"x_max":733.640625,"ha":824,"o":"m 733 718 l 540 718 l 540 341 b 390 136 540 195 495 136 b 266 312 300 136 266 194 l 266 718 l 73 718 l 73 276 b 330 -19 73 98 125 -19 b 545 100 412 -19 496 19 l 549 100 l 549 0 l 733 0 l 733 718 "},"˜":{"x_min":-73,"x_max":426.53125,"ha":360,"o":"m 332 991 b 275 943 333 965 316 943 b 185 968 244 943 214 955 b 98 991 157 979 129 991 b -73 822 -21 991 -55 902 l 10 822 b 67 880 18 856 30 880 b 162 856 98 880 128 869 b 274 833 196 845 233 833 b 384 888 329 833 362 856 b 426 991 406 920 417 959 l 332 991 "},"Ó":{"x_min":51.71875,"x_max":1007.21875,"ha":1081,"o":"m 51 491 b 529 -23 51 205 228 -23 b 1007 491 830 -23 1007 205 b 529 1015 1007 786 830 1015 b 51 491 228 1015 51 786 m 265 491 b 529 831 265 665 337 831 b 793 491 721 831 793 665 b 529 159 793 326 721 159 b 265 491 337 159 265 326 m 771 1277 l 558 1277 l 427 1080 l 562 1080 l 771 1277 "},"k":{"x_min":91.1875,"x_max":786.71875,"ha":797,"o":"m 91 0 l 284 0 l 284 247 l 359 320 l 552 0 l 786 0 l 491 454 l 756 718 l 528 718 l 284 459 l 284 991 l 91 991 l 91 0 "},"ˇ":{"x_min":-63,"x_max":415,"ha":360,"o":"m 415 1004 l 265 1004 l 176 891 l 89 1004 l -63 1004 l 88 806 l 265 806 l 415 1004 "},"Ù":{"x_min":89.828125,"x_max":918.75,"ha":1029,"o":"m 918 991 l 705 991 l 705 375 b 503 159 705 227 656 159 b 303 375 330 159 303 266 l 303 991 l 89 991 l 89 375 b 503 -23 89 105 242 -23 b 918 375 763 -23 918 106 l 918 991 m 472 1080 l 607 1080 l 476 1277 l 262 1277 l 472 1080 "},"Ÿ":{"x_min":-12.25,"x_max":920.109375,"ha":926,"o":"m 345 0 l 559 0 l 559 380 l 920 991 l 681 991 l 455 600 l 228 991 l -12 991 l 345 386 l 345 0 m 502 1102 l 686 1102 l 686 1265 l 502 1265 l 502 1102 m 221 1102 l 405 1102 l 405 1265 l 221 1265 l 221 1102 "},"€":{"x_min":20,"x_max":783.578125,"ha":772,"o":"m 783 933 b 535 1002 696 979 613 1002 b 266 897 428 1002 338 968 b 131 631 198 831 153 743 l 62 631 l 20 531 l 119 531 b 118 473 118 522 118 502 l 63 473 l 21 373 l 126 373 b 250 90 145 254 186 159 b 526 -23 319 13 412 -23 b 735 31 603 -23 673 -5 l 737 241 b 527 154 665 183 595 154 b 326 373 421 154 354 227 l 563 373 l 605 473 l 315 473 l 316 531 l 621 531 l 663 631 l 331 631 b 522 822 363 758 425 822 b 700 759 578 822 636 801 l 783 933 "},"¢":{"x_min":28.578125,"x_max":741.8125,"ha":772,"o":"m 353 129 b 221 366 251 161 221 268 b 353 587 221 462 257 561 l 353 129 m 353 -159 l 434 -159 l 434 -19 b 741 282 600 -5 726 105 l 552 282 b 434 129 551 211 500 141 l 434 589 b 549 464 495 583 544 530 l 739 464 b 434 737 733 630 583 736 l 434 855 l 353 855 l 353 737 b 28 347 142 719 28 558 b 353 -19 28 150 159 -6 l 353 -159 "},"Ω":{"x_min":50.359375,"x_max":903.78125,"ha":978,"o":"m 235 141 l 50 141 l 50 1 l 408 1 l 408 105 b 242 505 321 159 242 304 b 481 845 242 701 336 845 b 713 512 632 845 713 686 b 548 105 713 290 632 162 l 548 1 l 903 1 l 903 141 l 717 141 l 717 145 b 884 550 801 225 884 368 b 481 990 884 758 744 990 b 69 540 236 990 69 787 b 235 145 69 362 152 226 l 235 141 "},"ß":{"x_min":76.1875,"x_max":755.421875,"ha":849,"o":"m 76 0 l 269 0 l 269 716 b 390 852 269 798 313 852 b 521 729 431 852 521 845 b 378 605 521 643 451 605 b 348 608 368 605 359 606 l 348 477 b 396 480 364 479 381 480 b 562 311 510 480 562 409 b 404 143 562 218 496 143 b 348 150 385 143 366 144 l 348 -11 b 460 -19 385 -16 423 -19 b 755 304 632 -19 755 131 b 578 552 755 423 696 526 l 578 555 b 705 748 654 579 705 662 b 396 1015 705 931 558 1015 b 76 681 125 1015 74 837 l 76 0 "},"é":{"x_min":39.46875,"x_max":741.53125,"ha":797,"o":"m 740 311 b 398 737 754 531 638 737 b 39 358 185 737 39 573 b 398 -19 39 136 176 -19 b 728 222 558 -19 673 52 l 558 222 b 405 129 545 177 483 129 b 232 311 298 129 238 186 l 740 311 m 232 436 b 393 588 235 491 270 588 b 547 436 487 588 529 536 l 232 436 m 632 1004 l 419 1004 l 288 806 l 423 806 l 632 1004 "},"s":{"x_min":39.046875,"x_max":691.03125,"ha":746,"o":"m 39 233 b 369 -19 47 43 206 -19 b 691 230 530 -19 691 41 b 467 431 691 363 580 405 b 248 538 357 458 248 468 b 356 605 248 597 312 605 b 488 508 425 605 482 584 l 671 508 b 361 737 657 684 515 737 b 55 506 210 737 55 690 b 278 315 55 380 167 340 b 497 204 417 284 497 263 b 371 112 497 134 426 112 b 222 233 294 112 224 147 l 39 233 "},"B":{"x_min":93.796875,"x_max":907.75,"ha":978,"o":"m 307 441 l 540 441 b 694 300 631 441 694 401 b 536 169 694 197 620 169 l 307 169 l 307 441 m 93 0 l 564 0 b 907 287 740 0 907 86 b 729 538 907 411 847 504 b 861 745 813 580 861 648 b 551 991 861 930 736 991 l 93 991 l 93 0 m 307 822 l 507 822 b 654 708 583 822 654 802 b 523 590 654 625 598 590 l 307 590 l 307 822 "},"…":{"x_min":119.78125,"x_max":1239.96875,"ha":1389,"o":"m 119 0 l 333 0 l 333 213 l 119 213 l 119 0 m 573 0 l 786 0 l 786 213 l 573 213 l 573 0 m 1026 0 l 1239 0 l 1239 213 l 1026 213 l 1026 0 "},"?":{"x_min":43.5625,"x_max":713.21875,"ha":772,"o":"m 243 672 b 383 852 245 770 285 852 b 499 727 455 852 499 812 b 400 577 499 652 453 620 b 281 359 345 534 289 480 l 281 297 l 465 297 l 465 350 b 598 512 477 431 540 468 b 713 747 657 558 713 612 b 374 1015 713 854 631 1015 b 43 672 175 1015 47 870 l 243 672 m 262 0 l 476 0 l 476 213 l 262 213 l 262 0 "},"H":{"x_min":93.921875,"x_max":914.671875,"ha":1029,"o":"m 93 0 l 307 0 l 307 427 l 700 427 l 700 0 l 914 0 l 914 991 l 700 991 l 700 611 l 307 611 l 307 991 l 93 991 l 93 0 "},"î":{"x_min":-62.609375,"x_max":415.140625,"ha":358,"o":"m 78 0 l 272 0 l 272 717 l 78 717 l 78 0 m -62 806 l 84 806 l 171 919 l 255 806 l 415 806 l 265 1003 l 88 1003 l -62 806 "},"c":{"x_min":51.71875,"x_max":745.890625,"ha":797,"o":"m 741 465 b 411 737 729 648 577 737 b 51 348 182 737 51 572 b 406 -19 51 133 194 -19 b 745 275 592 -19 721 84 l 559 275 b 405 129 547 187 495 129 b 245 355 284 129 245 252 b 409 588 245 461 285 588 b 552 465 490 588 540 545 l 741 465 "},"¶":{"x_min":2.71875,"x_max":728.203125,"ha":861,"o":"m 300 -230 l 439 -230 l 439 880 l 589 880 l 589 -230 l 728 -230 l 728 991 l 329 991 b 2 738 140 991 2 933 b 300 495 2 591 111 495 l 300 -230 "},"−":{"x_min":65.328125,"x_max":752.703125,"ha":833,"o":"m 65 276 l 752 276 l 752 425 l 65 425 l 65 276 "},"≠":{"x_min":64.953125,"x_max":680.046875,"ha":763,"o":"m 548 713 l 470 745 l 403 590 l 64 590 l 64 490 l 367 490 l 286 301 l 64 301 l 64 201 l 248 201 l 194 75 l 271 43 l 339 201 l 680 201 l 680 301 l 376 301 l 458 490 l 680 490 l 680 590 l 494 590 l 548 713 "},"•":{"x_min":98,"x_max":583.921875,"ha":696,"o":"m 98 495 b 340 247 98 358 205 247 b 583 495 475 247 583 358 b 340 743 583 633 475 743 b 98 495 205 743 98 633 "},"¥":{"x_min":-12.25,"x_max":785.359375,"ha":772,"o":"m 488 0 l 488 191 l 703 191 l 703 323 l 488 323 l 488 387 l 509 428 l 703 428 l 703 560 l 574 560 l 785 991 l 564 991 l 389 560 l 209 991 l -12 991 l 197 560 l 68 560 l 68 428 l 262 428 l 281 387 l 281 323 l 68 323 l 68 191 l 281 191 l 281 0 l 488 0 "},"(":{"x_min":70.78125,"x_max":412.421875,"ha":411,"o":"m 250 1015 b 70 372 130 838 70 579 b 250 -252 70 155 138 -63 l 411 -252 b 264 386 310 -52 264 166 b 412 1015 264 601 311 819 l 250 1015 "},"U":{"x_min":89.828125,"x_max":918.75,"ha":1029,"o":"m 918 991 l 705 991 l 705 375 b 503 159 705 227 656 159 b 303 375 330 159 303 266 l 303 991 l 89 991 l 89 375 b 503 -23 89 105 242 -23 b 918 375 763 -23 918 106 l 918 991 "},"◊":{"x_min":68,"x_max":735,"ha":819,"o":"m 735 486 l 472 1041 l 337 1041 l 68 486 l 329 -68 l 465 -68 l 735 486 m 585 481 l 427 148 b 402 70 420 133 408 91 l 397 70 b 374 150 393 90 383 122 l 217 490 l 374 816 b 400 900 385 844 393 875 l 404 900 b 430 816 409 876 420 843 l 585 481 "},"Ñ":{"x_min":93.9375,"x_max":914.6875,"ha":1029,"o":"m 93 0 l 294 0 l 294 663 l 296 663 l 700 0 l 914 0 l 914 991 l 714 991 l 714 326 l 711 326 l 306 991 l 93 991 l 93 0 m 660 1265 b 602 1216 661 1238 643 1216 b 513 1241 571 1216 541 1229 b 426 1265 484 1252 457 1265 b 254 1095 306 1265 272 1176 l 337 1095 b 394 1154 345 1130 357 1154 b 490 1130 426 1154 455 1143 b 601 1106 524 1119 560 1106 b 711 1162 657 1106 690 1130 b 754 1265 733 1194 744 1233 l 660 1265 "},"F":{"x_min":93.921875,"x_max":777.203125,"ha":824,"o":"m 93 0 l 307 0 l 307 409 l 714 409 l 714 579 l 307 579 l 307 808 l 777 808 l 777 991 l 93 991 l 93 0 "},"­":{"x_min":72.140625,"x_max":481.828125,"ha":565,"o":"m 72 294 l 481 294 l 481 463 l 72 463 l 72 294 "},":":{"x_min":83.03125,"x_max":296.71875,"ha":386,"o":"m 83 0 l 296 0 l 296 213 l 83 213 l 83 0 m 296 705 l 83 705 l 83 491 l 296 491 l 296 705 "},"Û":{"x_min":90.25,"x_max":918.75,"ha":1029,"o":"m 918 991 l 705 991 l 705 375 b 503 160 705 228 656 160 b 303 375 331 160 303 266 l 303 991 l 90 991 l 90 375 b 503 -23 90 105 242 -23 b 918 375 763 -23 918 107 l 918 991 m 265 1080 l 412 1080 l 499 1193 l 584 1080 l 743 1080 l 593 1278 l 416 1278 l 265 1080 "},"*":{"x_min":29.9375,"x_max":524.03125,"ha":565,"o":"m 329 991 l 220 991 l 220 818 l 66 879 l 29 772 l 187 718 l 87 581 l 178 513 l 273 656 l 374 513 l 464 581 l 363 718 l 524 772 l 487 879 l 329 818 l 329 991 "},"†":{"x_min":32.671875,"x_max":724.109375,"ha":772,"o":"m 285 -230 l 469 -230 l 469 555 l 724 555 l 724 718 l 469 718 l 469 991 l 285 991 l 285 718 l 32 718 l 32 555 l 285 555 l 285 -230 "},"∕":{"x_min":-226,"x_max":453,"ha":232,"o":"m -226 -30 l -107 -30 l 453 1002 l 337 1002 l -226 -30 "},"°":{"x_min":70.78125,"x_max":473.671875,"ha":556,"o":"m 70 786 b 272 580 70 672 160 580 b 473 786 383 580 473 672 b 272 991 473 900 383 991 b 70 786 160 991 70 900 m 159 786 b 272 908 159 852 213 908 b 385 786 330 908 385 852 b 272 663 385 719 330 663 b 159 786 213 663 159 719 "},"V":{"x_min":-11,"x_max":868,"ha":875,"o":"m 868 991 l 647 991 l 428 294 l 425 294 l 209 991 l -11 991 l 304 0 l 545 0 l 868 991 "},"å":{"x_min":43.5625,"x_max":729.5625,"ha":797,"o":"m 511 278 b 355 112 511 235 506 112 b 236 204 292 112 236 131 b 351 310 236 276 291 297 b 511 351 411 321 479 322 l 511 278 m 258 497 b 386 606 265 575 313 606 b 511 508 454 606 511 593 b 283 414 511 428 401 432 b 43 196 163 397 43 358 b 283 -18 43 49 149 -18 b 519 69 368 -18 458 4 b 533 0 521 46 526 22 l 729 0 b 705 160 711 29 705 94 l 705 533 b 396 737 705 706 536 737 b 65 497 238 737 76 682 l 258 497 m 304 911 b 390 1008 304 965 338 1008 b 477 911 442 1008 477 965 b 390 814 477 857 442 814 b 304 911 338 814 304 857 m 224 911 b 390 742 224 818 299 742 b 558 911 483 742 558 818 b 390 1081 558 1004 483 1081 b 224 911 299 1081 224 1004 "}," ":{"x_min":0,"x_max":0,"ha":386},"0":{"x_min":28.578125,"x_max":728.203125,"ha":772,"o":"m 28 490 b 377 -19 28 102 189 -19 b 728 490 567 -19 728 102 b 377 991 728 869 567 991 b 28 490 189 991 28 869 m 221 490 b 377 829 221 591 221 829 b 534 490 534 829 534 591 b 377 143 534 380 534 143 b 221 490 221 143 221 380 "},"”":{"x_min":73.5,"x_max":556.828125,"ha":643,"o":"m 363 777 l 453 777 b 363 637 453 709 432 661 l 363 545 b 556 779 476 561 560 655 l 556 991 l 363 991 l 363 777 m 73 777 l 163 777 b 73 637 163 709 142 661 l 73 545 b 266 779 186 561 270 655 l 266 991 l 73 991 l 73 777 "},"¾":{"x_min":52.59375,"x_max":1173.359375,"ha":1235,"o":"m 965 0 l 1095 0 l 1095 123 l 1173 123 l 1173 234 l 1095 234 l 1095 583 l 959 583 l 703 252 l 703 123 l 965 123 l 965 0 m 965 234 l 807 234 l 962 434 l 965 434 l 965 234 m 324 -30 l 443 -30 l 1004 1002 l 888 1002 l 324 -30 m 245 644 b 387 565 304 644 387 644 b 288 477 387 513 342 477 b 183 588 220 477 186 529 l 52 588 b 290 366 49 444 143 366 b 526 568 417 366 526 434 b 416 698 526 631 484 686 l 416 701 b 506 820 476 716 506 765 b 289 991 506 934 397 991 b 68 780 154 991 73 909 l 199 780 b 290 880 198 836 232 880 b 375 806 334 880 375 852 b 245 741 375 741 297 741 l 245 644 "},"@":{"x_min":49.078125,"x_max":1040.078125,"ha":1111,"o":"m 396 442 b 564 647 396 534 466 647 b 669 528 623 647 669 597 b 502 319 669 433 600 319 b 396 442 439 319 396 369 m 846 756 l 735 756 l 713 681 b 554 778 681 753 612 778 b 257 424 374 778 257 599 b 471 187 257 295 353 187 b 618 267 528 187 585 212 l 620 267 b 720 188 623 222 662 188 b 1040 591 807 188 1040 305 b 566 1015 1040 847 814 1015 b 49 495 283 1015 49 788 b 573 -23 49 198 283 -23 b 988 201 743 -23 895 58 l 873 201 b 581 87 803 128 695 87 b 179 492 347 87 179 249 b 564 903 179 727 330 903 b 933 562 771 903 933 783 b 773 306 933 413 850 306 b 760 398 739 306 750 360 l 846 756 "},"ö":{"x_min":51.71875,"x_max":779.921875,"ha":849,"o":"m 51 358 b 415 -19 51 130 194 -19 b 779 358 637 -19 779 130 b 415 737 779 587 637 737 b 51 358 194 737 51 587 m 245 358 b 415 588 245 473 284 588 b 586 358 547 588 586 473 b 415 129 586 244 547 129 b 245 358 284 129 245 244 m 464 829 l 647 829 l 647 991 l 464 991 l 464 829 m 183 829 l 367 829 l 367 991 l 183 991 l 183 829 "},"i":{"x_min":78.9375,"x_max":272.21875,"ha":358,"o":"m 78 0 l 272 0 l 272 718 l 78 718 l 78 0 m 272 991 l 78 991 l 78 829 l 272 829 l 272 991 "},"≤":{"x_min":66.6875,"x_max":683.28125,"ha":763,"o":"m 677 138 l 677 255 l 170 501 l 170 505 l 677 750 l 677 866 l 72 556 l 72 448 l 677 138 m 683 -16 l 683 86 l 66 86 l 66 -16 l 683 -16 "},"Õ":{"x_min":51.71875,"x_max":1007.21875,"ha":1081,"o":"m 51 491 b 529 -23 51 205 228 -23 b 1007 491 830 -23 1007 205 b 529 1015 1007 786 830 1015 b 51 491 228 1015 51 786 m 265 491 b 529 831 265 665 337 831 b 793 491 721 831 793 665 b 529 159 793 326 721 159 b 265 491 337 159 265 326 m 686 1265 b 628 1216 687 1238 669 1216 b 539 1241 597 1216 567 1229 b 451 1265 510 1252 483 1265 b 280 1095 332 1265 298 1176 l 363 1095 b 420 1154 371 1130 383 1154 b 515 1130 451 1154 481 1143 b 627 1106 549 1119 586 1106 b 737 1162 683 1106 715 1130 b 779 1265 759 1194 770 1233 l 686 1265 "},"þ":{"x_min":73.5,"x_max":789.453125,"ha":849,"o":"m 73 -252 l 266 -252 l 266 88 l 269 88 b 480 -19 315 18 396 -19 b 789 351 686 -19 789 159 b 469 737 789 555 690 737 b 269 626 392 737 315 702 l 266 626 l 266 991 l 73 991 l 73 -252 m 596 356 b 428 129 596 240 555 129 b 259 356 303 129 259 240 b 427 588 259 473 300 588 b 596 356 551 588 596 470 "},"]":{"x_min":1.359375,"x_max":360.6875,"ha":463,"o":"m 360 1015 l 1 1015 l 1 859 l 167 859 l 167 -97 l 1 -97 l 1 -252 l 360 -252 l 360 1015 "},"m":{"x_min":78.9375,"x_max":1154.21875,"ha":1258,"o":"m 78 0 l 272 0 l 272 416 b 402 582 272 557 364 582 b 519 402 525 582 519 486 l 519 0 l 713 0 l 713 400 b 842 582 713 490 733 582 b 960 407 952 582 960 502 l 960 0 l 1154 0 l 1154 480 b 896 737 1154 666 1046 737 b 684 618 798 737 725 680 b 479 737 646 704 567 737 b 264 621 387 737 314 694 l 261 621 l 261 718 l 78 718 l 78 0 "},"8":{"x_min":19.0625,"x_max":737.71875,"ha":772,"o":"m 212 294 b 381 448 212 394 287 448 b 544 293 470 448 544 386 b 381 129 544 195 473 129 b 212 294 288 129 212 194 m 58 726 b 198 526 58 630 106 552 l 198 523 b 19 284 87 495 19 408 b 381 -19 19 75 197 -19 b 737 286 558 -19 737 81 b 559 523 737 408 672 497 l 559 526 b 698 730 649 556 698 634 b 379 991 698 825 616 991 b 58 726 224 991 58 901 m 234 708 b 379 843 234 794 302 843 b 522 708 499 843 522 758 b 379 580 522 625 458 580 b 234 708 302 580 234 623 "},"ž":{"x_min":30.0625,"x_max":676.9375,"ha":721,"o":"m 30 0 l 676 0 l 676 148 l 284 148 l 651 569 l 651 718 l 57 718 l 57 569 l 396 569 l 30 148 l 30 0 m 592 1004 l 442 1004 l 354 891 l 267 1004 l 114 1004 l 265 806 l 442 806 l 592 1004 "},"R":{"x_min":93.921875,"x_max":931,"ha":1003,"o":"m 93 0 l 307 0 l 307 387 l 521 387 b 683 237 628 387 668 341 b 717 0 694 158 691 62 l 931 0 b 890 234 892 55 894 172 b 748 466 883 334 853 438 l 748 469 b 902 718 856 513 902 601 b 617 991 902 868 792 991 l 93 991 l 93 0 m 307 822 l 541 822 b 688 684 637 822 688 780 b 541 543 688 584 637 543 l 307 543 l 307 822 "},"á":{"x_min":43.609375,"x_max":729.609375,"ha":797,"o":"m 511 278 b 355 112 511 235 506 112 b 236 204 292 112 236 131 b 351 310 236 276 291 297 b 511 351 411 321 479 322 l 511 278 m 258 497 b 386 606 265 575 313 606 b 511 508 454 606 511 593 b 283 414 511 428 401 432 b 43 196 163 397 43 358 b 283 -18 43 49 149 -18 b 520 69 368 -18 458 4 b 533 0 521 46 526 22 l 729 0 b 705 160 711 29 705 94 l 705 533 b 396 737 705 706 536 737 b 65 497 238 737 76 682 l 258 497 m 632 1004 l 419 1004 l 288 807 l 423 807 l 632 1004 "},"×":{"x_min":87,"x_max":731,"ha":833,"o":"m 190 24 l 409 247 l 627 24 l 731 129 l 511 352 l 731 574 l 627 680 l 409 457 l 193 680 l 89 574 l 306 352 l 87 129 l 190 24 "},"o":{"x_min":51.71875,"x_max":779.921875,"ha":849,"o":"m 51 358 b 415 -19 51 130 194 -19 b 779 358 637 -19 779 130 b 415 737 779 587 637 737 b 51 358 194 737 51 587 m 245 358 b 415 588 245 473 284 588 b 586 358 547 588 586 473 b 415 129 586 244 547 129 b 245 358 284 129 245 244 "},"5":{"x_min":24.5,"x_max":732.28125,"ha":772,"o":"m 680 972 l 148 972 l 54 435 l 228 435 b 374 513 266 488 304 513 b 539 331 477 513 539 432 b 374 143 539 234 475 143 b 217 289 289 143 227 203 l 24 289 b 378 -18 27 85 193 -18 b 732 331 570 -22 732 131 b 438 661 732 513 626 661 b 251 586 363 661 303 640 l 249 589 l 287 810 l 680 810 l 680 972 "},"õ":{"x_min":51.84375,"x_max":780.03125,"ha":849,"o":"m 51 358 b 415 -19 51 130 194 -19 b 780 358 637 -19 780 130 b 415 737 780 587 637 737 b 51 358 194 737 51 587 m 245 358 b 415 588 245 473 284 588 b 586 358 547 588 586 473 b 415 129 586 244 547 129 b 245 358 284 129 245 244 m 571 991 b 514 943 573 965 555 943 b 424 968 483 943 453 955 b 337 991 396 979 368 991 b 166 822 217 991 183 902 l 249 822 b 306 880 257 856 269 880 b 401 856 337 880 367 869 b 513 833 435 845 472 833 b 623 888 569 833 601 856 b 665 991 645 920 656 959 l 571 991 "},"7":{"x_min":53.265625,"x_max":703.875,"ha":772,"o":"m 703 972 l 53 972 l 53 788 l 505 788 b 185 0 324 566 207 287 l 392 0 b 703 802 394 259 503 625 l 703 972 "},"K":{"x_min":93.921875,"x_max":990.890625,"ha":1003,"o":"m 93 0 l 307 0 l 307 319 l 430 445 l 722 0 l 990 0 l 574 600 l 954 991 l 687 991 l 307 580 l 307 991 l 93 991 l 93 0 "},",":{"x_min":83.03125,"x_max":296.71875,"ha":386,"o":"m 83 0 l 181 0 b 84 -130 183 -61 141 -120 l 84 -230 b 296 0 201 -212 296 -127 l 296 213 l 83 213 l 83 0 "},"d":{"x_min":43.5625,"x_max":759.5,"ha":849,"o":"m 575 0 l 759 0 l 759 991 l 566 991 l 566 630 l 563 630 b 355 737 519 701 438 737 b 43 365 148 737 43 558 b 359 -19 43 166 147 -19 b 573 91 449 -19 528 13 l 575 91 l 575 0 m 573 361 b 406 129 573 243 534 129 b 236 359 287 129 236 247 b 406 588 236 477 280 588 b 573 361 532 588 573 477 "},"¨":{"x_min":-55.8125,"x_max":408.328125,"ha":360,"o":"m 224 829 l 408 829 l 408 991 l 224 991 l 224 829 m -55 829 l 127 829 l 127 991 l -55 991 l -55 829 "},"Ô":{"x_min":51.71875,"x_max":1007.21875,"ha":1081,"o":"m 51 491 b 529 -23 51 205 228 -23 b 1007 491 830 -23 1007 205 b 529 1015 1007 786 830 1015 b 51 491 228 1015 51 786 m 265 491 b 529 832 265 665 337 832 b 793 491 721 832 793 665 b 529 160 793 326 721 160 b 265 491 337 160 265 326 m 291 1080 l 438 1080 l 525 1193 l 609 1080 l 769 1080 l 619 1278 l 442 1278 l 291 1080 "},"E":{"x_min":93.921875,"x_max":831.640625,"ha":900,"o":"m 93 0 l 831 0 l 831 183 l 307 183 l 307 426 l 778 426 l 778 595 l 307 595 l 307 808 l 820 808 l 820 991 l 93 991 l 93 0 "},"Y":{"x_min":-12.25,"x_max":920.109375,"ha":926,"o":"m 345 0 l 559 0 l 559 380 l 920 991 l 681 991 l 455 600 l 228 991 l -12 991 l 345 386 l 345 0 "},"\"":{"x_min":115.6875,"x_max":514.5,"ha":643,"o":"m 368 545 l 514 545 l 514 991 l 368 991 l 368 545 m 115 545 l 261 545 l 261 991 l 115 991 l 115 545 "},"‹":{"x_min":57.140625,"x_max":270.828125,"ha":335,"o":"m 270 111 l 270 277 l 148 377 l 270 476 l 270 643 l 57 472 l 57 284 l 270 111 "},"˙":{"x_min":84.390625,"x_max":268.140625,"ha":360,"o":"m 84 829 l 268 829 l 268 991 l 84 991 l 84 829 "},"ê":{"x_min":38.84375,"x_max":740.890625,"ha":797,"o":"m 739 310 b 398 737 753 531 637 737 b 38 357 184 737 38 573 b 398 -19 38 135 176 -19 b 727 221 557 -19 673 52 l 557 221 b 404 128 545 177 482 128 b 232 310 297 128 237 185 l 739 310 m 232 435 b 392 588 234 491 270 588 b 546 435 486 588 528 535 l 232 435 m 151 806 l 298 806 l 385 919 l 470 806 l 629 806 l 479 1003 l 302 1003 l 151 806 "},"Ï":{"x_min":-31.3125,"x_max":432.828125,"ha":410,"o":"m 93 0 l 307 0 l 307 991 l 93 991 l 93 0 m 249 1102 l 432 1102 l 432 1265 l 249 1265 l 249 1102 m -31 1102 l 152 1102 l 152 1265 l -31 1265 l -31 1102 "},"„":{"x_min":73.5,"x_max":556.828125,"ha":643,"o":"m 363 0 l 453 0 b 363 -140 453 -68 432 -116 l 363 -231 b 556 1 476 -216 560 -122 l 556 213 l 363 213 l 363 0 m 73 0 l 163 0 b 73 -140 163 -68 142 -116 l 73 -231 b 266 1 186 -216 270 -122 l 266 213 l 73 213 l 73 0 "},"Â":{"x_min":-10,"x_max":941,"ha":951,"o":"m -10 0 l 206 0 l 282 221 l 645 221 l 719 0 l 941 0 l 577 991 l 358 991 l -10 0 m 464 747 l 467 747 l 589 383 l 338 383 l 464 747 m 226 1080 l 373 1080 l 460 1193 l 545 1080 l 704 1080 l 554 1278 l 377 1278 l 226 1080 "},"Í":{"x_min":94.015625,"x_max":442.453125,"ha":410,"o":"m 94 0 l 307 0 l 307 991 l 94 991 l 94 0 m 442 1277 l 228 1277 l 98 1080 l 232 1080 l 442 1277 "},"´":{"x_min":74,"x_max":418,"ha":360,"o":"m 418 1004 l 204 1004 l 74 806 l 208 806 l 418 1004 "},"ì":{"x_min":-65.328125,"x_max":279.03125,"ha":358,"o":"m 78 0 l 272 0 l 272 718 l 78 718 l 78 0 m 144 806 l 279 806 l 148 1004 l -65 1004 l 144 806 "},"±":{"x_min":65.328125,"x_max":752.703125,"ha":833,"o":"m 481 702 l 336 702 l 336 520 l 65 520 l 65 372 l 336 372 l 336 190 l 481 190 l 481 372 l 752 372 l 752 520 l 481 520 l 481 702 m 65 0 l 752 0 l 752 148 l 65 148 l 65 0 "},"Ú":{"x_min":89.828125,"x_max":918.75,"ha":1029,"o":"m 918 991 l 705 991 l 705 375 b 503 159 705 227 656 159 b 303 375 330 159 303 266 l 303 991 l 89 991 l 89 375 b 503 -23 89 105 242 -23 b 918 375 763 -23 918 106 l 918 991 m 745 1277 l 532 1277 l 401 1080 l 536 1080 l 745 1277 "},"|":{"x_min":78.9375,"x_max":224.578125,"ha":310,"o":"m 78 -297 l 224 -297 l 224 1091 l 78 1091 l 78 -297 "},"§":{"x_min":13.96875,"x_max":742.8125,"ha":772,"o":"m 512 398 b 574 311 545 380 574 352 b 511 234 574 280 546 234 b 470 244 495 234 480 240 l 226 380 b 182 448 196 397 182 422 b 252 541 182 488 212 537 b 288 527 265 543 277 533 l 512 398 m 672 747 b 385 1015 672 919 545 1015 b 101 775 246 1015 101 931 b 159 634 101 716 121 676 b 13 431 68 601 13 531 b 251 168 13 295 133 225 b 483 -12 371 111 483 69 b 382 -104 483 -73 438 -104 b 249 16 300 -104 253 -63 l 80 16 b 386 -252 79 -172 213 -252 b 676 -19 523 -252 676 -176 b 601 144 676 47 652 104 b 742 347 685 175 742 255 b 515 602 742 479 629 547 b 284 777 402 658 284 700 b 387 866 284 833 338 866 b 503 747 459 866 503 815 l 672 747 "},"Ý":{"x_min":-11.96875,"x_max":920.390625,"ha":926,"o":"m 346 0 l 559 0 l 559 380 l 920 991 l 682 991 l 456 600 l 228 991 l -11 991 l 346 386 l 346 0 m 695 1277 l 482 1277 l 351 1080 l 486 1080 l 695 1277 "},"b":{"x_min":73.5,"x_max":782.640625,"ha":849,"o":"m 73 0 l 257 0 l 257 91 l 259 91 b 491 -19 302 12 387 -19 b 782 359 631 -19 782 95 b 491 737 782 622 631 737 b 269 630 404 737 317 704 l 266 630 l 266 991 l 73 991 l 73 0 m 589 358 b 424 129 589 238 539 129 b 259 358 310 129 259 238 b 424 588 259 479 310 588 b 589 358 539 588 589 479 "},"q":{"x_min":43.5625,"x_max":759.5,"ha":849,"o":"m 759 718 l 575 718 l 575 626 l 573 626 b 359 737 529 705 446 737 b 43 354 145 737 43 551 b 341 -19 43 76 212 -19 b 563 90 426 -19 518 12 l 566 90 l 566 -252 l 759 -252 l 759 718 m 236 358 b 408 588 236 475 283 588 b 573 355 529 588 573 468 b 404 129 573 237 529 129 b 236 358 277 129 236 243 "},"Ω":{"x_min":50.359375,"x_max":903.78125,"ha":978,"o":"m 235 141 l 50 141 l 50 1 l 408 1 l 408 105 b 242 505 321 159 242 304 b 481 845 242 701 336 845 b 713 512 632 845 713 686 b 548 105 713 290 632 162 l 548 1 l 903 1 l 903 141 l 717 141 l 717 145 b 884 550 801 225 884 368 b 481 990 884 758 744 990 b 69 540 236 990 69 787 b 235 145 69 362 152 226 l 235 141 "},"Ö":{"x_min":51.71875,"x_max":1007.21875,"ha":1081,"o":"m 51 491 b 529 -23 51 205 228 -23 b 1007 491 830 -23 1007 205 b 529 1015 1007 786 830 1015 b 51 491 228 1015 51 786 m 265 491 b 529 831 265 665 337 831 b 793 491 721 831 793 665 b 529 159 793 326 721 159 b 265 491 337 159 265 326 m 578 1102 l 762 1102 l 762 1265 l 578 1265 l 578 1102 m 298 1102 l 481 1102 l 481 1265 l 298 1265 l 298 1102 "},"ﬂ":{"x_min":0,"x_max":752.703125,"ha":849,"o":"m 559 0 l 752 0 l 752 991 l 559 991 l 559 0 m 115 0 l 308 0 l 308 586 l 442 586 l 442 718 l 308 718 l 308 761 b 382 843 308 820 330 843 b 453 838 406 843 430 841 l 453 986 b 351 991 420 987 385 991 b 115 773 193 991 115 900 l 115 718 l 0 718 l 0 586 l 115 586 l 115 0 "},"z":{"x_min":30.1875,"x_max":676.71875,"ha":721,"o":"m 30 0 l 676 0 l 676 148 l 284 148 l 650 569 l 650 718 l 57 718 l 57 569 l 396 569 l 30 148 l 30 0 "},"™":{"x_min":84.390625,"x_max":1263.109375,"ha":1389,"o":"m 1263 991 l 1079 991 l 939 615 l 798 991 l 613 991 l 613 419 l 744 419 l 744 825 l 747 825 l 891 419 l 985 419 l 1129 825 l 1132 825 l 1132 419 l 1263 419 l 1263 991 m 541 991 l 84 991 l 84 880 l 243 880 l 243 419 l 382 419 l 382 880 l 541 880 l 541 991 "},"ã":{"x_min":43.859375,"x_max":729.859375,"ha":797,"o":"m 512 278 b 355 112 512 235 506 112 b 237 204 292 112 237 131 b 351 310 237 276 291 297 b 512 351 411 321 479 322 l 512 278 m 258 497 b 386 606 265 575 313 606 b 512 508 454 606 512 593 b 283 414 512 428 401 432 b 43 196 163 397 43 358 b 283 -18 43 49 150 -18 b 520 69 369 -18 459 4 b 533 0 521 46 527 22 l 729 0 b 705 160 712 29 705 94 l 705 533 b 396 737 705 706 536 737 b 65 497 238 737 76 682 l 258 497 m 547 992 b 490 943 548 965 531 943 b 400 968 459 943 429 956 b 313 992 371 979 344 992 b 141 822 193 992 159 903 l 224 822 b 282 881 233 857 245 881 b 377 857 313 881 343 869 b 488 833 411 846 448 833 b 599 889 544 833 577 857 b 641 992 620 921 631 960 l 547 992 "},"æ":{"x_min":51.671875,"x_max":1195.015625,"ha":1260,"o":"m 523 261 b 364 113 523 156 435 113 b 244 206 306 113 244 133 b 357 306 244 275 300 294 b 523 350 417 317 487 319 l 523 261 m 1195 311 b 871 737 1195 535 1106 737 b 635 640 759 737 690 706 b 402 737 586 715 484 737 b 70 494 238 737 77 675 l 264 494 b 398 606 266 578 325 606 b 523 514 461 606 523 589 b 287 414 523 440 451 439 b 51 194 170 396 51 358 b 314 -18 51 36 180 -18 b 601 103 419 -18 536 15 b 864 -18 661 15 763 -18 b 1188 225 1016 -18 1150 72 l 1000 225 b 860 113 988 154 944 113 b 692 311 752 113 690 217 l 1195 311 m 692 436 b 850 606 694 524 751 606 b 1001 436 947 606 1003 524 l 692 436 "},"®":{"x_min":21.78125,"x_max":1067.109375,"ha":1111,"o":"m 21 497 b 544 -23 21 180 268 -23 b 1067 497 820 -23 1067 180 b 544 1015 1067 812 820 1015 b 21 497 268 1015 21 812 m 160 497 b 544 904 160 733 330 904 b 928 497 755 904 928 733 b 544 87 928 259 755 87 b 160 497 330 87 160 259 m 341 206 l 454 206 l 454 455 l 525 455 l 664 206 l 782 206 l 630 461 b 779 616 714 468 779 509 b 556 788 779 743 699 788 l 341 788 l 341 206 m 454 698 l 549 698 b 666 626 601 698 666 688 b 555 545 666 555 619 545 l 454 545 l 454 698 "},"É":{"x_min":93.921875,"x_max":831.640625,"ha":900,"o":"m 93 0 l 831 0 l 831 183 l 307 183 l 307 426 l 778 426 l 778 595 l 307 595 l 307 808 l 820 808 l 820 991 l 93 991 l 93 0 m 683 1277 l 469 1277 l 338 1080 l 473 1080 l 683 1277 "},"~":{"x_min":91,"x_max":725.28125,"ha":833,"o":"m 670 477 b 551 377 639 429 605 377 b 412 427 514 377 462 405 b 261 472 360 451 307 472 b 91 352 169 472 120 411 l 145 223 b 259 323 167 272 199 323 b 416 275 322 323 372 300 b 555 229 461 250 504 229 b 725 348 639 229 684 290 l 670 477 "},"³":{"x_min":29.875,"x_max":503.609375,"ha":544,"o":"m 223 644 b 364 565 281 644 364 644 b 265 477 364 513 319 477 b 160 588 197 477 163 529 l 29 588 b 268 366 27 444 121 366 b 503 568 394 366 503 434 b 393 698 503 631 461 686 l 393 701 b 483 820 453 716 483 765 b 266 991 483 934 374 991 b 46 780 132 991 50 909 l 176 780 b 268 880 175 836 209 880 b 352 806 311 880 352 852 b 223 741 352 741 274 741 l 223 644 "},"¡":{"x_min":83.03125,"x_max":296.71875,"ha":386,"o":"m 296 737 l 83 737 l 83 523 l 296 523 l 296 737 m 88 -254 l 289 -254 l 289 12 l 238 440 l 141 440 l 88 12 l 88 -254 "},"[":{"x_min":92.5625,"x_max":451.890625,"ha":463,"o":"m 92 -252 l 451 -252 l 451 -97 l 285 -97 l 285 859 l 451 859 l 451 1015 l 92 1015 l 92 -252 "},"L":{"x_min":93.921875,"x_max":781.28125,"ha":824,"o":"m 93 0 l 781 0 l 781 183 l 307 183 l 307 991 l 93 991 l 93 0 "}," ":{"x_min":0,"x_max":0,"ha":386},"∑":{"x_min":30.875,"x_max":729.078125,"ha":772,"o":"m 729 -134 l 729 26 l 239 26 l 239 30 l 550 448 l 270 822 l 270 827 l 707 827 l 707 973 l 43 973 l 43 852 l 360 420 l 30 -23 l 30 -134 l 729 -134 "},"%":{"x_min":102.078125,"x_max":1259.03125,"ha":1389,"o":"m 102 716 b 326 450 102 563 159 450 b 556 711 485 450 556 559 b 333 991 556 863 502 991 b 102 716 174 991 102 868 m 240 713 b 333 887 240 777 246 887 b 417 712 413 887 417 766 b 328 554 417 654 412 554 b 240 713 240 554 240 654 m 804 254 b 1029 -19 804 101 861 -19 b 1259 248 1188 -19 1259 97 b 1035 522 1259 401 1204 522 b 804 254 876 522 804 405 m 943 252 b 1035 418 943 316 948 418 b 1120 251 1116 418 1120 305 b 1030 84 1120 193 1114 84 b 943 252 943 84 943 193 m 345 -30 l 464 -30 l 1024 1002 l 909 1002 l 345 -30 "},"P":{"x_min":93.921875,"x_max":868.390625,"ha":926,"o":"m 93 0 l 307 0 l 307 355 l 532 355 b 868 673 774 355 868 512 b 532 991 868 834 774 991 l 93 991 l 93 0 m 307 822 l 473 822 b 661 673 573 822 661 800 b 473 525 661 547 573 525 l 307 525 l 307 822 "},"∏":{"x_min":34.03125,"x_max":941.890625,"ha":997,"o":"m 941 816 l 941 973 l 34 973 l 34 816 l 171 816 l 171 -134 l 338 -134 l 338 816 l 637 816 l 637 -134 l 804 -134 l 804 816 l 941 816 "},"À":{"x_min":-10,"x_max":941,"ha":951,"o":"m -10 0 l 206 0 l 282 220 l 645 220 l 719 0 l 941 0 l 577 991 l 358 991 l -10 0 m 464 747 l 467 747 l 589 383 l 338 383 l 464 747 m 433 1080 l 568 1080 l 437 1277 l 224 1277 l 433 1080 "},"_":{"x_min":0,"x_max":680.5625,"ha":694,"o":"m 0 -173 l 680 -173 l 680 -104 l 0 -104 l 0 -173 "},"ñ":{"x_min":73.875,"x_max":734.015625,"ha":824,"o":"m 73 0 l 267 0 l 267 376 b 416 581 267 522 312 581 b 540 405 506 581 540 523 l 540 0 l 734 0 l 734 441 b 476 737 734 619 682 737 b 261 618 395 737 310 698 l 257 618 l 257 718 l 73 718 l 73 0 m 559 991 b 502 943 561 965 543 943 b 412 968 471 943 441 955 b 325 991 384 979 356 991 b 154 822 205 991 171 902 l 237 822 b 294 880 245 856 257 880 b 389 856 325 880 355 869 b 501 833 423 845 460 833 b 611 888 557 833 589 856 b 653 991 633 920 644 959 l 559 991 "},"+":{"x_min":65.328125,"x_max":752.703125,"ha":833,"o":"m 481 701 l 336 701 l 336 425 l 65 425 l 65 276 l 336 276 l 336 0 l 481 0 l 481 276 l 752 276 l 752 425 l 481 425 l 481 701 "},"‚":{"x_min":92.5625,"x_max":285.96875,"ha":386,"o":"m 92 0 l 182 0 b 92 -140 182 -68 161 -116 l 92 -231 b 285 1 205 -216 289 -122 l 285 213 l 92 213 l 92 0 "},"½":{"x_min":32.3125,"x_max":1151.140625,"ha":1235,"o":"m 206 -30 l 324 -30 l 885 1002 l 770 1002 l 206 -30 m 320 979 l 206 979 b 32 863 194 890 119 861 l 32 759 l 182 759 l 182 379 l 320 379 l 320 979 m 831 370 b 929 501 828 426 853 501 b 1012 415 979 501 1012 463 b 881 272 1010 343 936 308 b 691 0 775 204 692 147 l 1145 0 l 1145 111 l 861 111 b 1040 247 907 175 979 206 b 1151 425 1102 288 1151 337 b 938 612 1151 548 1051 612 b 692 370 771 612 691 513 l 831 370 "},"Æ":{"x_min":-14.96875,"x_max":1284.890625,"ha":1363,"o":"m 568 808 l 615 808 l 615 383 l 381 383 l 568 808 m -14 0 l 212 0 l 310 220 l 615 220 l 615 0 l 1284 0 l 1284 183 l 822 183 l 822 426 l 1246 426 l 1246 595 l 822 595 l 822 808 l 1274 808 l 1274 991 l 449 991 l -14 0 "},"Ë":{"x_min":93.921875,"x_max":831.640625,"ha":900,"o":"m 93 0 l 831 0 l 831 183 l 307 183 l 307 426 l 778 426 l 778 595 l 307 595 l 307 808 l 820 808 l 820 991 l 93 991 l 93 0 m 490 1102 l 673 1102 l 673 1265 l 490 1265 l 490 1102 m 209 1102 l 393 1102 l 393 1265 l 209 1265 l 209 1102 "},"'":{"x_min":117.0625,"x_max":262.6875,"ha":386,"o":"m 117 545 l 262 545 l 262 991 l 117 991 l 117 545 "},"Š":{"x_min":33.078125,"x_max":850.90625,"ha":901,"o":"m 33 329 b 446 -23 30 85 231 -23 b 850 294 710 -23 850 112 b 562 583 850 519 633 565 b 272 733 318 647 272 657 b 419 846 272 817 351 846 b 611 696 521 846 604 815 l 818 696 b 429 1015 818 925 631 1015 b 65 715 253 1015 65 918 b 355 433 65 529 211 472 b 644 269 498 394 644 376 b 454 146 644 168 529 146 b 239 329 340 146 239 197 l 33 329 m 680 1278 l 531 1278 l 442 1165 l 355 1278 l 203 1278 l 354 1080 l 531 1080 l 680 1278 "},"ª":{"x_min":13.609375,"x_max":460.0625,"ha":478,"o":"m 313 715 b 213 611 313 672 303 611 b 152 662 187 611 152 622 b 221 718 152 697 183 709 b 313 743 249 723 294 725 l 313 715 m 166 840 b 232 901 170 883 201 901 b 314 847 277 901 314 894 b 168 794 314 802 250 804 b 13 659 91 784 13 761 b 166 520 13 561 81 520 b 313 576 215 520 273 534 b 322 533 314 562 317 548 l 460 533 b 443 637 449 552 443 591 l 443 868 b 239 991 443 972 334 991 b 102 961 189 991 140 983 b 27 840 63 938 35 901 l 166 840 "},"Œ":{"x_min":51.71875,"x_max":1430.53125,"ha":1518,"o":"m 740 0 l 1430 0 l 1430 183 l 939 183 l 939 426 l 1380 426 l 1380 595 l 939 595 l 939 808 l 1421 808 l 1421 991 l 740 991 l 740 920 l 737 920 b 507 1015 684 990 592 1015 b 51 490 220 1015 51 765 b 503 -23 51 215 216 -23 b 737 75 588 -23 680 11 l 740 75 l 740 0 m 732 386 b 518 159 732 251 649 159 b 265 493 336 159 265 330 b 522 831 265 658 333 831 b 732 622 643 831 732 747 l 732 386 "},"˛":{"x_min":12.25,"x_max":340.28125,"ha":360,"o":"m 274 -177 b 196 -219 250 -212 224 -219 b 142 -172 168 -219 142 -200 b 255 4 142 -125 168 -76 l 167 4 b 12 -177 14 -88 12 -152 b 157 -302 12 -294 123 -302 b 340 -208 219 -302 285 -279 l 274 -177 "},"ð":{"x_min":51.8125,"x_max":780.1875,"ha":849,"o":"m 415 128 b 245 358 284 128 245 244 b 413 570 245 459 287 570 b 586 358 539 570 586 460 b 415 128 586 244 547 128 m 181 823 l 260 745 l 412 823 b 551 647 457 783 518 724 l 548 647 b 364 702 486 691 416 702 b 51 342 147 702 51 513 b 415 -19 51 130 194 -19 b 780 378 637 -19 780 151 b 555 897 784 592 699 755 l 710 976 l 639 1058 l 472 972 b 337 1063 431 1005 386 1035 l 212 967 b 326 898 250 949 288 926 l 181 823 "},"T":{"x_min":17.6875,"x_max":813.953125,"ha":849,"o":"m 308 0 l 522 0 l 522 808 l 813 808 l 813 991 l 17 991 l 17 808 l 308 808 l 308 0 "},"š":{"x_min":39.5625,"x_max":691.03125,"ha":746,"o":"m 39 233 b 370 -19 47 43 206 -19 b 691 230 530 -19 691 41 b 468 431 691 363 580 405 b 249 538 357 458 249 468 b 356 605 249 597 312 605 b 488 508 425 605 482 584 l 671 508 b 361 737 657 684 515 737 b 55 506 210 737 55 690 b 278 315 55 380 167 340 b 497 204 417 284 497 263 b 371 112 497 134 427 112 b 223 233 295 112 224 147 l 39 233 m 604 1004 l 454 1004 l 366 891 l 278 1004 l 126 1004 l 277 806 l 454 806 l 604 1004 "},"℮":{"x_min":46.734375,"x_max":1147.875,"ha":1219,"o":"m 1147 472 l 1147 486 b 596 991 1147 765 901 991 b 46 486 293 991 46 765 b 596 -18 46 206 293 -18 b 1032 177 773 -18 934 59 l 953 177 b 598 9 866 75 739 9 b 260 159 465 9 347 68 b 249 190 253 168 249 179 l 249 466 b 256 472 249 470 252 472 l 1147 472 m 945 508 b 939 498 945 505 943 498 l 256 498 b 249 508 252 498 249 505 l 249 779 b 261 812 249 791 253 804 b 598 961 348 902 467 961 b 931 818 728 961 845 904 b 945 784 941 808 945 797 l 945 508 "},"Þ":{"x_min":93.921875,"x_max":868.390625,"ha":926,"o":"m 93 0 l 307 0 l 307 220 l 532 220 b 868 538 774 220 868 377 b 532 856 868 700 774 856 l 307 856 l 307 991 l 93 991 l 93 0 m 307 687 l 473 687 b 661 538 573 687 661 665 b 473 390 661 412 573 390 l 307 390 l 307 687 "},"j":{"x_min":-25.859375,"x_max":284.46875,"ha":386,"o":"m -25 -247 b 36 -252 -5 -250 16 -252 b 284 -36 231 -252 284 -183 l 284 718 l 91 718 l 91 -26 b 16 -90 91 -80 55 -90 b -25 -84 0 -90 -13 -88 l -25 -247 m 284 991 l 91 991 l 91 829 l 284 829 l 284 991 "},"1":{"x_min":100.71875,"x_max":533.5625,"ha":772,"o":"m 533 972 l 379 972 b 100 779 359 823 235 776 l 100 630 l 340 630 l 340 0 l 533 0 l 533 972 "},"›":{"x_min":57.171875,"x_max":270.859375,"ha":335,"o":"m 57 643 l 57 476 l 179 377 l 57 277 l 57 111 l 270 284 l 270 472 l 57 643 "},"ı":{"x_min":78.9375,"x_max":272.21875,"ha":358,"o":"m 78 0 l 272 0 l 272 718 l 78 718 l 78 0 "},"ℓ":{"x_min":31.3125,"x_max":669.671875,"ha":708,"o":"m 600 251 b 428 123 563 188 502 123 b 307 279 362 123 308 176 l 306 338 b 573 823 469 501 573 658 b 385 1069 573 959 515 1069 b 142 716 253 1069 142 963 l 142 363 b 31 268 108 330 72 302 l 74 175 b 144 231 98 193 122 213 b 145 216 145 226 145 220 b 389 -13 157 91 225 -13 b 669 179 496 -13 598 37 l 600 251 m 306 719 b 392 945 306 895 351 945 b 466 829 447 945 466 901 b 306 498 466 729 400 608 l 306 719 "},"ä":{"x_min":43.5625,"x_max":729.5625,"ha":797,"o":"m 511 278 b 355 112 511 235 506 112 b 236 204 292 112 236 131 b 351 310 236 276 291 297 b 511 351 411 321 479 322 l 511 278 m 258 497 b 386 606 265 575 313 606 b 511 508 454 606 511 593 b 283 414 511 428 401 432 b 43 196 163 397 43 358 b 283 -18 43 49 149 -18 b 519 69 368 -18 458 4 b 533 0 521 46 526 22 l 729 0 b 705 160 711 29 705 94 l 705 533 b 396 737 705 706 536 737 b 65 497 238 737 76 682 l 258 497 m 439 829 l 623 829 l 623 992 l 439 992 l 439 829 m 159 829 l 343 829 l 343 992 l 159 992 l 159 829 "},"<":{"x_min":62.609375,"x_max":754.0625,"ha":833,"o":"m 754 714 l 62 433 l 62 269 l 754 -11 l 754 148 l 254 351 l 754 554 l 754 714 "},"£":{"x_min":28.234375,"x_max":771.78125,"ha":772,"o":"m 119 -24 b 276 28 172 17 227 28 b 411 0 336 28 371 14 b 559 -24 449 -12 491 -24 b 771 64 628 -24 706 0 l 690 204 b 570 145 641 151 607 145 b 464 161 534 145 499 153 b 356 176 428 168 393 176 b 263 145 330 176 307 172 l 261 147 b 372 342 321 196 372 254 b 362 428 372 372 370 400 l 505 428 l 505 546 l 323 546 b 268 724 269 646 268 681 b 401 851 268 801 322 851 b 549 667 540 851 545 721 l 733 667 b 402 1014 735 892 608 1014 b 54 738 174 1014 54 885 b 115 546 54 656 88 581 l 28 546 l 28 428 l 163 428 b 188 335 178 397 188 365 b 35 104 188 233 111 154 l 119 -24 "},"¹":{"x_min":104.8125,"x_max":393.359375,"ha":544,"o":"m 393 979 l 279 979 b 104 863 266 890 191 861 l 104 759 l 254 759 l 254 379 l 393 379 l 393 979 "},"t":{"x_min":8.171875,"x_max":460.0625,"ha":489,"o":"m 318 933 l 125 933 l 125 718 l 8 718 l 8 586 l 125 586 l 125 162 b 347 -8 125 19 228 -8 b 460 -1 385 -8 427 -6 l 460 152 b 400 147 439 148 420 147 b 318 230 334 147 318 163 l 318 586 l 460 586 l 460 718 l 318 718 l 318 933 "},"¬":{"x_min":65.328125,"x_max":751.328125,"ha":833,"o":"m 751 563 l 65 563 l 65 415 l 605 415 l 605 137 l 751 137 l 751 563 "},"ù":{"x_min":73.5,"x_max":733.640625,"ha":824,"o":"m 733 718 l 540 718 l 540 341 b 390 136 540 195 495 136 b 266 312 300 136 266 194 l 266 718 l 73 718 l 73 276 b 330 -19 73 98 125 -19 b 545 100 412 -19 496 19 l 549 100 l 549 0 l 733 0 l 733 718 m 371 806 l 506 806 l 375 1004 l 161 1004 l 371 806 "},"W":{"x_min":4,"x_max":1281,"ha":1311,"o":"m 1281 991 l 1071 991 l 912 308 l 909 308 l 743 991 l 543 991 l 374 316 l 371 316 l 217 991 l 4 991 l 261 0 l 477 0 l 639 675 l 642 675 l 807 0 l 1019 0 l 1281 991 "},"ï":{"x_min":-55.8125,"x_max":408.328125,"ha":358,"o":"m 78 0 l 272 0 l 272 718 l 78 718 l 78 0 m 224 829 l 408 829 l 408 991 l 224 991 l 224 829 m -55 829 l 127 829 l 127 991 l -55 991 l -55 829 "},">":{"x_min":62.609375,"x_max":754.0625,"ha":833,"o":"m 62 -11 l 754 269 l 754 433 l 62 714 l 62 554 l 562 351 l 62 148 l 62 -11 "},"v":{"x_min":7,"x_max":701,"ha":722,"o":"m 701 718 l 509 718 l 360 227 l 358 227 l 209 718 l 7 718 l 247 0 l 462 0 l 701 718 "},"û":{"x_min":73.875,"x_max":733.125,"ha":824,"o":"m 733 717 l 540 717 l 540 341 b 390 135 540 195 495 135 b 266 312 300 135 266 194 l 266 717 l 73 717 l 73 275 b 330 -19 73 98 125 -19 b 545 99 412 -19 496 19 l 549 99 l 549 0 l 733 0 l 733 717 m 165 806 l 311 806 l 398 919 l 482 806 l 641 806 l 492 1003 l 315 1003 l 165 806 "},"Ò":{"x_min":51.71875,"x_max":1007.21875,"ha":1081,"o":"m 51 491 b 529 -23 51 205 228 -23 b 1007 491 830 -23 1007 205 b 529 1015 1007 786 830 1015 b 51 491 228 1015 51 786 m 265 491 b 529 831 265 665 337 831 b 793 491 721 831 793 665 b 529 159 793 326 721 159 b 265 491 337 159 265 326 m 498 1080 l 632 1080 l 502 1277 l 288 1277 l 498 1080 "},"&":{"x_min":44,"x_max":947.40625,"ha":951,"o":"m 520 776 b 420 634 520 704 475 670 b 344 783 384 680 344 720 b 431 870 344 834 385 870 b 520 776 479 870 520 827 m 529 230 b 366 143 484 179 435 143 b 227 273 293 143 227 201 b 363 437 227 354 295 406 l 529 230 m 710 0 l 947 0 l 750 234 b 843 479 804 304 834 390 l 676 479 b 641 361 671 438 660 397 l 515 518 b 688 765 613 570 688 650 b 422 1002 688 922 569 1002 b 169 776 292 1002 169 913 b 261 565 169 690 210 630 b 44 277 147 511 44 416 b 358 -19 44 90 182 -19 b 631 98 468 -19 554 20 l 710 0 "},"˝":{"x_min":-76,"x_max":543,"ha":360,"o":"m 261 1004 l 47 1004 l -76 806 l 58 806 l 261 1004 m 543 1004 l 329 1004 l 205 806 l 340 806 l 543 1004 "},"Ð":{"x_min":4.078125,"x_max":954.140625,"ha":1029,"o":"m 93 0 l 513 0 b 954 501 809 0 954 213 b 513 991 954 830 764 991 l 93 991 l 93 593 l 4 593 l 4 431 l 93 431 l 93 0 m 307 808 l 460 808 b 740 480 672 808 740 680 b 498 183 740 261 622 183 l 307 183 l 307 430 l 525 430 l 525 593 l 307 593 l 307 808 "},"I":{"x_min":93.921875,"x_max":307.609375,"ha":410,"o":"m 93 0 l 307 0 l 307 991 l 93 991 l 93 0 "},"ˉ":{"x_min":-77.578125,"x_max":430.109375,"ha":360,"o":"m -77 855 l 430 855 l 430 959 l -77 959 l -77 855 "},"G":{"x_min":51.859375,"x_max":954.015625,"ha":1054,"o":"m 818 -1 l 954 -1 l 954 534 l 545 534 l 545 372 l 761 372 b 529 158 748 234 668 158 b 265 490 337 158 265 325 b 529 830 265 663 337 830 b 735 663 630 830 710 773 l 939 663 b 529 1013 915 888 728 1013 b 51 490 228 1013 51 784 b 529 -25 51 204 228 -25 b 796 111 623 -25 721 12 l 818 -1 "},"`":{"x_min":-65.359375,"x_max":279,"ha":360,"o":"m 144 806 l 279 806 l 148 1004 l -65 1004 l 144 806 "},"·":{"x_min":74.859375,"x_max":304.890625,"ha":386,"o":"m 74 398 b 191 281 74 334 127 281 b 304 398 251 281 304 340 b 190 516 304 462 251 516 b 74 398 127 516 74 463 "},"r":{"x_min":73.5,"x_max":526.75,"ha":540,"o":"m 73 0 l 266 0 l 266 323 b 457 554 266 450 315 554 b 526 547 480 554 509 551 l 526 730 b 484 737 514 734 498 737 b 259 584 390 737 295 675 l 257 584 l 257 718 l 73 718 l 73 0 "},"¿":{"x_min":43.5625,"x_max":710.5,"ha":772,"o":"m 510 70 b 372 -109 509 -27 468 -109 b 257 15 300 -109 257 -69 b 356 165 257 90 303 122 b 475 383 411 208 466 262 l 475 445 l 291 445 l 291 393 b 157 230 279 311 216 275 b 43 -4 99 184 43 130 b 382 -272 43 -111 125 -272 b 710 70 578 -272 706 -127 l 510 70 m 494 737 l 280 737 l 280 523 l 494 523 l 494 737 "},"ý":{"x_min":-8,"x_max":715,"ha":721,"o":"m 715 716 l 514 716 l 360 225 l 358 225 l 198 716 l -8 716 l 239 43 b 173 -91 261 -13 239 -84 b 60 -84 134 -93 96 -87 l 60 -247 b 178 -254 99 -251 139 -254 b 420 -91 311 -254 378 -206 l 715 716 m 595 1002 l 381 1002 l 250 805 l 385 805 l 595 1002 "},"x":{"x_min":0,"x_max":731,"ha":746,"o":"m 0 0 l 216 0 l 363 226 l 510 0 l 731 0 l 471 381 l 702 718 l 488 718 l 366 530 l 242 718 l 21 718 l 253 377 l 0 0 "},"è":{"x_min":39.46875,"x_max":741.53125,"ha":797,"o":"m 740 311 b 398 737 754 531 638 737 b 39 358 185 737 39 573 b 398 -19 39 136 176 -19 b 728 222 558 -19 673 52 l 558 222 b 405 129 545 177 483 129 b 232 311 298 129 238 186 l 740 311 m 232 436 b 393 588 235 491 270 588 b 547 436 487 588 529 536 l 232 436 m 359 806 l 494 806 l 363 1004 l 149 1004 l 359 806 "},"º":{"x_min":16.328125,"x_max":483.1875,"ha":510,"o":"m 16 755 b 249 520 16 609 108 520 b 483 755 390 520 483 609 b 249 991 483 901 390 991 b 16 755 108 991 16 901 m 161 755 b 249 887 161 819 187 887 b 337 755 311 887 337 819 b 249 625 337 694 311 625 b 161 755 187 625 161 694 "},"Ø":{"x_min":46.890625,"x_max":1013.28125,"ha":1081,"o":"m 46 13 l 113 -46 l 226 81 b 530 -24 301 16 404 -24 b 1007 491 830 -24 1007 205 b 898 841 1007 627 969 749 l 1013 970 l 945 1031 l 836 908 b 530 1015 758 976 655 1015 b 52 491 229 1015 52 785 b 163 145 52 357 90 237 l 46 13 m 304 303 b 266 491 276 360 266 426 b 530 831 266 665 338 831 b 707 760 607 831 666 804 l 304 303 m 757 680 b 794 491 783 623 794 558 b 530 159 794 325 722 159 b 355 227 453 159 396 185 l 757 680 "},"∞":{"x_min":65.328125,"x_max":992.25,"ha":1081,"o":"m 992 402 b 782 631 992 541 901 631 b 534 477 661 633 593 544 b 289 631 465 569 392 631 b 65 394 161 631 65 534 b 279 162 65 256 166 162 b 530 319 389 162 460 231 b 774 162 622 198 695 162 b 992 401 886 162 992 251 l 992 402 m 291 256 b 160 394 216 256 160 319 b 285 540 160 476 208 540 b 479 390 374 540 423 468 b 292 256 427 327 368 256 l 291 256 m 773 540 b 896 394 846 540 896 479 b 777 256 896 333 854 256 b 582 400 709 256 665 295 b 771 540 626 450 688 540 l 773 540 "},"μ":{"x_min":73.5,"x_max":733.640625,"ha":824,"o":"m 733 718 l 540 718 l 540 342 b 390 136 540 196 495 136 b 266 313 300 136 266 194 l 266 718 l 73 718 l 73 -252 l 266 -252 l 266 14 b 368 -18 283 -3 314 -18 b 545 100 412 -18 496 19 l 549 100 l 549 0 l 733 0 l 733 718 "},"÷":{"x_min":65.328125,"x_max":752.703125,"ha":833,"o":"m 65 276 l 752 276 l 752 425 l 65 425 l 65 276 m 294 638 b 411 522 294 575 347 522 b 524 638 470 522 524 580 b 409 756 524 702 470 756 b 294 638 347 756 294 704 m 294 62 b 411 -55 294 -1 347 -55 b 524 62 470 -55 524 4 b 409 179 524 126 470 179 b 294 62 347 179 294 127 "},"h":{"x_min":73.5,"x_max":733.640625,"ha":824,"o":"m 73 0 l 266 0 l 266 376 b 416 581 266 522 311 581 b 540 405 506 581 540 523 l 540 0 l 733 0 l 733 441 b 476 737 733 619 681 737 b 270 618 404 737 319 698 l 266 618 l 266 991 l 73 991 l 73 0 "},".":{"x_min":81.671875,"x_max":295.359375,"ha":386,"o":"m 81 0 l 295 0 l 295 213 l 81 213 l 81 0 "},";":{"x_min":83.03125,"x_max":296.71875,"ha":386,"o":"m 83 0 l 181 0 b 84 -130 183 -61 141 -120 l 84 -230 b 296 0 201 -212 295 -127 l 296 213 l 83 213 l 83 0 m 296 705 l 83 705 l 83 491 l 296 491 l 296 705 "},"f":{"x_min":0,"x_max":453.25,"ha":463,"o":"m 115 0 l 308 0 l 308 586 l 442 586 l 442 718 l 308 718 l 308 761 b 382 843 308 820 330 843 b 453 838 406 843 430 841 l 453 986 b 351 991 420 987 385 991 b 115 773 193 991 115 900 l 115 718 l 0 718 l 0 586 l 115 586 l 115 0 "},"“":{"x_min":73.359375,"x_max":556.6875,"ha":643,"o":"m 556 760 l 466 760 b 556 900 466 828 487 876 l 556 992 b 363 758 443 976 359 882 l 363 546 l 556 546 l 556 760 m 266 760 l 176 760 b 266 900 176 828 197 876 l 266 992 b 73 758 153 976 69 882 l 73 546 l 266 546 l 266 760 "},"A":{"x_min":-10,"x_max":941,"ha":951,"o":"m -10 0 l 206 0 l 282 220 l 645 220 l 719 0 l 941 0 l 577 991 l 358 991 l -10 0 m 464 747 l 467 747 l 589 383 l 338 383 l 464 747 "},"6":{"x_min":28.40625,"x_max":728.015625,"ha":772,"o":"m 711 722 b 402 991 689 893 567 991 b 28 483 131 991 28 720 b 394 -19 28 237 105 -19 b 728 336 593 -19 728 137 b 654 552 728 412 704 493 b 435 652 600 613 517 652 b 220 544 342 652 273 620 l 217 547 b 400 843 223 655 259 843 b 527 722 466 843 515 787 l 711 722 m 389 504 b 534 320 488 504 534 412 b 389 143 534 233 481 143 b 235 323 292 143 235 233 b 389 504 235 419 285 504 "},"‘":{"x_min":92.421875,"x_max":285.828125,"ha":386,"o":"m 285 760 l 196 760 b 285 900 196 828 216 876 l 285 992 b 92 758 172 976 88 882 l 92 546 l 285 546 l 285 760 "},"π":{"x_min":6.8125,"x_max":794.890625,"ha":831,"o":"m 781 583 l 794 731 l 227 731 b 6 686 111 731 40 712 l 25 569 b 159 583 54 579 93 583 b 73 0 156 429 119 162 l 239 0 b 326 583 287 145 319 431 l 515 583 l 515 198 b 539 0 515 100 522 29 l 703 0 b 686 206 694 43 686 104 l 686 583 l 781 583 "},"O":{"x_min":51.71875,"x_max":1007.21875,"ha":1081,"o":"m 51 491 b 529 -23 51 205 228 -23 b 1007 491 830 -23 1007 205 b 529 1015 1007 786 830 1015 b 51 491 228 1015 51 786 m 265 491 b 529 831 265 665 337 831 b 793 491 721 831 793 665 b 529 159 793 326 721 159 b 265 491 337 159 265 326 "},"n":{"x_min":73.5,"x_max":733.640625,"ha":824,"o":"m 73 0 l 266 0 l 266 376 b 416 581 266 522 311 581 b 540 405 506 581 540 523 l 540 0 l 733 0 l 733 441 b 476 737 733 619 681 737 b 261 618 394 737 310 698 l 257 618 l 257 718 l 73 718 l 73 0 "},"3":{"x_min":24.421875,"x_max":732.28125,"ha":772,"o":"m 310 440 b 530 295 404 440 530 443 b 375 143 530 204 462 143 b 208 334 264 143 212 229 l 24 334 b 378 -19 20 111 164 -19 b 732 300 564 -19 732 95 b 563 520 732 408 668 497 l 563 523 b 696 722 651 548 696 630 b 377 991 696 895 529 991 b 47 655 181 991 54 854 l 231 655 b 378 829 230 755 281 829 b 513 700 449 829 513 781 b 310 579 513 588 393 572 l 310 440 "},"9":{"x_min":28.984375,"x_max":728.59375,"ha":772,"o":"m 45 249 b 354 -19 67 79 189 -19 b 728 488 625 -19 728 251 b 362 991 728 734 651 991 b 28 635 163 991 28 834 b 102 419 28 559 52 479 b 321 319 156 358 239 319 b 536 427 414 319 483 351 l 539 424 b 357 129 533 316 497 129 b 229 249 290 129 241 184 l 45 249 m 367 467 b 222 651 268 467 222 559 b 367 829 222 738 275 829 b 521 648 464 829 521 738 b 367 467 521 552 471 467 "},"l":{"x_min":78.9375,"x_max":272.21875,"ha":358,"o":"m 78 0 l 272 0 l 272 991 l 78 991 l 78 0 "},"¤":{"x_min":26.84375,"x_max":729.890625,"ha":772,"o":"m 26 207 l 103 129 l 179 210 b 379 142 227 165 300 142 b 574 211 454 142 529 167 l 652 131 l 727 207 l 652 285 b 714 487 693 336 714 411 b 653 686 714 564 693 642 l 729 762 l 646 847 l 567 768 b 381 830 526 805 453 830 b 182 766 304 830 227 805 l 104 844 l 26 765 l 104 685 b 39 485 59 639 39 561 b 104 287 39 408 62 337 l 26 207 m 381 682 b 546 487 491 682 546 585 b 379 290 546 387 491 290 b 208 485 267 290 208 383 b 381 682 208 587 266 682 "},"∂":{"x_min":51.71875,"x_max":711.859375,"ha":794,"o":"m 140 887 b 318 954 175 918 235 954 b 547 618 455 954 547 795 b 545 570 547 606 547 581 l 544 570 b 344 681 524 606 455 681 b 51 316 183 681 51 541 b 332 -12 51 165 141 -12 b 711 566 573 -12 711 219 b 340 1097 711 920 537 1097 b 92 1018 213 1097 134 1050 l 140 887 m 348 131 b 219 311 269 131 219 211 b 378 543 219 433 284 543 b 529 425 462 543 517 469 b 349 131 515 287 451 131 l 348 131 "},"4":{"x_min":21.78125,"x_max":735,"ha":772,"o":"m 424 0 l 608 0 l 608 225 l 735 225 l 735 387 l 608 387 l 608 972 l 435 972 l 21 405 l 21 225 l 424 225 l 424 0 m 424 387 l 174 387 l 420 725 l 424 725 l 424 387 "},"p":{"x_min":73.5,"x_max":789.453125,"ha":849,"o":"m 73 -252 l 266 -252 l 266 88 l 269 88 b 480 -19 315 18 396 -19 b 789 351 686 -19 789 159 b 469 737 789 555 690 737 b 259 626 382 737 306 702 l 257 626 l 257 718 l 73 718 l 73 -252 m 428 129 b 259 356 303 129 259 240 b 427 588 259 473 300 588 b 596 356 551 588 596 470 b 428 129 596 240 555 129 "},"‡":{"x_min":32.671875,"x_max":724.109375,"ha":772,"o":"m 285 -230 l 469 -230 l 469 37 l 724 37 l 724 200 l 469 200 l 469 555 l 724 555 l 724 718 l 469 718 l 469 991 l 285 991 l 285 718 l 32 718 l 32 555 l 285 555 l 285 200 l 32 200 l 32 37 l 285 37 l 285 -230 "},"à":{"x_min":43.5625,"x_max":729.5625,"ha":797,"o":"m 511 278 b 355 112 511 235 506 112 b 236 204 292 112 236 131 b 351 310 236 276 291 297 b 511 351 411 321 479 322 l 511 278 m 258 497 b 386 606 265 575 313 606 b 511 508 454 606 511 593 b 283 414 511 428 401 432 b 43 196 163 397 43 358 b 283 -18 43 49 149 -18 b 519 69 368 -18 458 4 b 533 0 521 46 526 22 l 729 0 b 705 160 711 29 705 94 l 705 533 b 396 737 705 706 536 737 b 65 497 238 737 76 682 l 258 497 m 359 807 l 494 807 l 363 1004 l 149 1004 l 359 807 "},"Ü":{"x_min":89.828125,"x_max":918.75,"ha":1029,"o":"m 918 991 l 705 991 l 705 375 b 503 159 705 227 656 159 b 303 375 330 159 303 266 l 303 991 l 89 991 l 89 375 b 503 -23 89 105 242 -23 b 918 375 763 -23 918 106 l 918 991 m 552 1102 l 736 1102 l 736 1265 l 552 1265 l 552 1102 m 272 1102 l 455 1102 l 455 1265 l 272 1265 l 272 1102 "},"ó":{"x_min":51.96875,"x_max":780.171875,"ha":849,"o":"m 51 358 b 415 -19 51 130 194 -19 b 780 358 637 -19 780 130 b 415 737 780 587 637 737 b 51 358 194 737 51 587 m 245 358 b 415 588 245 473 284 588 b 586 358 547 588 586 473 b 415 129 586 244 547 129 b 245 358 284 129 245 244 m 657 1004 l 443 1004 l 313 806 l 448 806 l 657 1004 "},"√":{"x_min":44,"x_max":814,"ha":819,"o":"m 814 1167 l 697 1167 l 464 130 b 443 0 454 80 448 30 l 441 1 b 414 121 434 32 423 77 l 272 567 l 44 473 l 71 376 l 171 416 l 374 -196 l 509 -196 l 814 1167 "}}}
